<svg width="44" height="42" viewBox="0 0 44 42" fill="none" xmlns="http://www.w3.org/2000/svg">
<g clip-path="url(#clip0_164_935)">
<path d="M23.2675 3.40489L22.3825 0.960577C22.2363 0.536145 21.7788 0.520804 21.6175 0.960577L20.7325 3.40489L18.7712 3.78842C18.4225 3.86001 18.2725 4.44808 18.5312 4.80092L19.9563 6.69296L19.6188 9.35717C19.5663 9.83274 19.9262 10.2009 20.2487 9.98103L22.0075 8.71285L23.755 9.96058C24.0775 10.1805 24.4413 9.81228 24.385 9.33671L24.0475 6.67251L25.4725 4.80092C25.7275 4.45319 25.5813 3.86512 25.2325 3.78842L23.2713 3.40489H23.2675ZM19.6 13.7293C18.9363 13.7293 18.4 14.4606 18.4 15.3657V25.1839C18.4 26.089 18.9363 26.8202 19.6 26.8202H24.4C25.0638 26.8202 25.6 26.089 25.6 25.1839V15.3657C25.6 14.4606 25.0638 13.7293 24.4 13.7293H19.6ZM11.2 17.0021C10.5362 17.0021 10 17.7333 10 18.6384V25.1839C10 26.089 10.5362 26.8202 11.2 26.8202H16C16.6638 26.8202 17.2 26.089 17.2 25.1839V18.6384C17.2 17.7333 16.6638 17.0021 16 17.0021H11.2ZM26.8 21.9111V25.1839C26.8 26.089 27.3363 26.8202 28 26.8202H32.8C33.4638 26.8202 34 26.089 34 25.1839V21.9111C34 21.006 33.4638 20.2748 32.8 20.2748H28C27.3363 20.2748 26.8 21.006 26.8 21.9111Z" fill="#FCBE45"/>
<path d="M0.443359 39.4546V30.9995H3.67188C5.30078 30.9995 6.36719 31.9956 6.36719 33.5132V33.5249C6.36719 34.6968 5.72852 35.6108 4.66797 35.9448L6.625 39.4546H5.38867L3.57812 36.1089H1.49805V39.4546H0.443359ZM1.49805 35.1714H3.57812C4.66211 35.1714 5.27734 34.5913 5.27734 33.5601V33.5483C5.27734 32.5405 4.62109 31.937 3.53125 31.937H1.49805V35.1714ZM9.88867 39.5659C8.6875 39.5659 7.7793 38.8394 7.7793 37.6909V37.6792C7.7793 36.5542 8.61133 35.9038 10.082 35.8159L11.8926 35.7046V35.1304C11.8926 34.3511 11.418 33.9292 10.4746 33.9292C9.71875 33.9292 9.2207 34.2104 9.05664 34.7026L9.05078 34.7202H8.03125L8.03711 34.6851C8.20117 33.6948 9.16211 33.0269 10.5098 33.0269C12.0508 33.0269 12.9121 33.8179 12.9121 35.1304V39.4546H11.8926V38.5229H11.7988C11.4004 39.1968 10.7383 39.5659 9.88867 39.5659ZM8.82227 37.6675C8.82227 38.3062 9.36719 38.6812 10.0996 38.6812C11.1367 38.6812 11.8926 38.0015 11.8926 37.0991V36.5249L10.2051 36.6304C9.24414 36.689 8.82227 37.0288 8.82227 37.6558V37.6675ZM14.7754 39.4546V33.1382H15.7949V34.0874H15.8887C16.2051 33.4194 16.7969 33.0269 17.7285 33.0269C19.1465 33.0269 19.9375 33.8647 19.9375 35.3647V39.4546H18.918V35.6108C18.918 34.4741 18.4492 33.9292 17.4414 33.9292C16.4336 33.9292 15.7949 34.6089 15.7949 35.7163V39.4546H14.7754ZM21.8418 39.4546V30.6304H22.8613V35.8979H22.9551L25.6855 33.1382H26.9219L24.168 35.7925L27.1035 39.4546H25.8203L23.4531 36.4839L22.8613 37.0581V39.4546H21.8418ZM28.8379 31.9194C28.4512 31.9194 28.1348 31.603 28.1348 31.2163C28.1348 30.8296 28.4512 30.5132 28.8379 30.5132C29.2246 30.5132 29.541 30.8296 29.541 31.2163C29.541 31.603 29.2246 31.9194 28.8379 31.9194ZM28.3223 39.4546V33.1382H29.3418V39.4546H28.3223ZM31.2637 39.4546V33.1382H32.2832V34.0874H32.377C32.6934 33.4194 33.2852 33.0269 34.2168 33.0269C35.6348 33.0269 36.4258 33.8647 36.4258 35.3647V39.4546H35.4062V35.6108C35.4062 34.4741 34.9375 33.9292 33.9297 33.9292C32.9219 33.9292 32.2832 34.6089 32.2832 35.7163V39.4546H31.2637ZM40.873 41.6812C39.3496 41.6812 38.377 40.9956 38.2188 39.9585L38.2305 39.9526H39.2852L39.291 39.9585C39.4023 40.439 39.9648 40.7788 40.873 40.7788C42.0039 40.7788 42.6777 40.2456 42.6777 39.314V38.0366H42.584C42.1855 38.7339 41.4707 39.1265 40.6035 39.1265C38.9688 39.1265 37.9551 37.8608 37.9551 36.0913V36.0796C37.9551 34.3101 38.9746 33.0269 40.627 33.0269C41.5176 33.0269 42.209 33.4663 42.5957 34.1812H42.666V33.1382H43.6855V39.3667C43.6855 40.7788 42.5957 41.6812 40.873 41.6812ZM40.8262 38.2241C41.998 38.2241 42.7012 37.3452 42.7012 36.0913V36.0796C42.7012 34.8257 41.9922 33.9292 40.8262 33.9292C39.6543 33.9292 38.998 34.8257 38.998 36.0796V36.0913C38.998 37.3452 39.6543 38.2241 40.8262 38.2241Z" fill="#FCBE45"/>
</g>
<defs>
<clipPath id="clip0_164_935">
<rect width="44" height="42" fill="white"/>
</clipPath>
</defs>
</svg>
