<svg width="36" height="41" viewBox="0 0 36 41" fill="none" xmlns="http://www.w3.org/2000/svg">
<path d="M6 26.8183V9.36375L18 0.636475L30 9.36375V26.8183H21V16.6365H15V26.8183H6Z" fill="#FDCE74"/>
<path d="M2.43164 39.4546V30.9995H3.48633V34.6558H8.12695V30.9995H9.18164V39.4546H8.12695V35.605H3.48633V39.4546H2.43164ZM13.8047 39.5659C12.0059 39.5659 10.8926 38.3237 10.8926 36.3022V36.2905C10.8926 34.2632 12.0059 33.0269 13.8047 33.0269C15.6035 33.0269 16.7168 34.2632 16.7168 36.2905V36.3022C16.7168 38.3237 15.6035 39.5659 13.8047 39.5659ZM13.8047 38.6636C15 38.6636 15.6738 37.7905 15.6738 36.3022V36.2905C15.6738 34.7964 15 33.9292 13.8047 33.9292C12.6094 33.9292 11.9355 34.7964 11.9355 36.2905V36.3022C11.9355 37.7905 12.6094 38.6636 13.8047 38.6636ZM18.2988 39.4546V33.1382H19.3184V34.0991H19.4121C19.6934 33.4194 20.291 33.0269 21.1172 33.0269C21.9727 33.0269 22.5703 33.478 22.8633 34.1343H22.957C23.2969 33.4663 24.0176 33.0269 24.8906 33.0269C26.1797 33.0269 26.9004 33.7651 26.9004 35.0894V39.4546H25.8809V35.3237C25.8809 34.3921 25.4531 33.9292 24.5625 33.9292C23.6836 33.9292 23.1035 34.5913 23.1035 35.394V39.4546H22.084V35.1655C22.084 34.4155 21.5684 33.9292 20.7715 33.9292C19.9453 33.9292 19.3184 34.6499 19.3184 35.5405V39.4546H18.2988ZM31.3184 39.5659C29.5137 39.5659 28.4238 38.3003 28.4238 36.3198V36.314C28.4238 34.3628 29.5371 33.0269 31.2539 33.0269C32.9707 33.0269 34.0137 34.3042 34.0137 36.1909V36.5894H29.4668C29.4961 37.896 30.2168 38.6577 31.3418 38.6577C32.1973 38.6577 32.7246 38.2534 32.8945 37.8726L32.918 37.8198H33.9375L33.9258 37.8667C33.709 38.7222 32.8066 39.5659 31.3184 39.5659ZM31.248 33.9351C30.3105 33.9351 29.5957 34.5737 29.4844 35.7749H32.9766C32.8711 34.5269 32.1797 33.9351 31.248 33.9351Z" fill="#FDCE74"/>
</svg>
