<svg width="296" height="382" viewBox="0 0 296 382" fill="none" xmlns="http://www.w3.org/2000/svg">
<path d="M0 18C0 8.05889 8.05888 0 18 0H278C287.941 0 296 8.05888 296 18V76.4H0V18Z" fill="white"/>
<path d="M0 0H296H0ZM296 78.4H0V74.4H296V78.4ZM0 76.4V0V76.4ZM296 0V76.4V0Z" fill="#E7E6E6"/>
<path d="M24.8354 38.5462L31.0604 42.3113C32.2004 43.0013 33.5954 41.9813 33.2954 40.6912L31.6454 33.6112L37.1504 28.8413C38.1554 27.9713 37.6154 26.3213 36.2954 26.2163L29.0504 25.6013L26.2154 18.9112C25.7054 17.6963 23.9654 17.6963 23.4554 18.9112L20.6204 25.5863L13.3754 26.2013C12.0554 26.3063 11.5154 27.9563 12.5204 28.8263L18.0254 33.5963L16.3754 40.6763C16.0754 41.9663 17.4704 42.9862 18.6104 42.2962L24.8354 38.5462Z" fill="#F8D418"/>
<path d="M25.0117 36V28.7168H24.918L22.7676 30.2754V29.1621L25.0176 27.5449H26.0664V36H25.0117Z" fill="white"/>
<path d="M74.5399 37.568C74.2151 37.036 74.6289 36.494 75.3364 35.824C76.46 34.76 77.6815 32.2939 76.5468 29.7899C76.5534 29.7759 76.2286 29.1319 75.8237 28.8959L54.1088 28.8479C53.6883 29.1919 53.4458 29.7759 53.4525 29.7899C52.3178 32.2939 53.5415 34.76 54.6628 35.824C55.3703 36.494 55.7842 37.036 55.4593 37.568C55.1434 38.086 54.2045 38.16 54.2045 38.16C54.2045 38.16 54.4203 38.69 54.9432 38.974C55.426 39.238 56.2514 39.3 56.6608 39.308C56.6608 39.308 59.5064 41.302 64.9996 41.302C70.4929 41.302 73.3385 39.308 73.3385 39.308C73.7479 39.3 74.5733 39.238 75.0561 38.974C75.5789 38.69 75.7948 38.16 75.7948 38.16C75.7948 38.16 74.8559 38.086 74.5399 37.568Z" fill="#543930"/>
<path d="M55.0925 36.252C55.0925 36.252 57.5688 36.82 56.4519 38.342C55.4885 39.18 54.2092 38.16 54.2092 38.16C54.2092 38.16 55.1481 38.084 55.464 37.568C55.4774 37.548 55.4818 37.528 55.493 37.508L55.5197 37.454C55.5381 37.4122 55.5508 37.3685 55.5575 37.324C55.5664 37.282 55.5708 37.24 55.5708 37.198V37.146C55.5686 37.12 55.5664 37.092 55.5619 37.066C55.5597 37.052 55.5553 37.036 55.5508 37.022C55.5397 36.974 55.5263 36.928 55.5063 36.878L55.4863 36.83C55.444 36.736 55.3884 36.64 55.3194 36.542C55.3127 36.532 55.3038 36.522 55.2972 36.512C55.2349 36.428 55.1681 36.342 55.0925 36.252Z" fill="url(#paint0_radial_84_554)"/>
<path d="M58.757 31.9678C58.0139 33.7998 55.5265 36.9178 55.5265 36.9178C55.5198 36.8998 55.5109 36.8838 55.5042 36.8658C55.3729 36.5458 55.0659 36.2058 54.6632 35.8238C53.5396 34.7598 52.3182 32.2938 53.4529 29.7898C53.4462 29.7758 53.771 29.1317 54.176 28.8957L59.1308 28.8857C59.2732 29.2777 58.9016 31.6118 58.757 31.9678Z" fill="url(#paint1_radial_84_554)"/>
<path d="M74.9074 36.252C74.9074 36.252 72.4311 36.82 73.548 38.342C74.5114 39.18 75.7907 38.16 75.7907 38.16C75.7907 38.16 74.8518 38.084 74.5358 37.568C74.5225 37.548 74.518 37.528 74.5069 37.508L74.4802 37.454C74.4618 37.4122 74.4491 37.3685 74.4424 37.324C74.4335 37.2824 74.4291 37.2402 74.429 37.198V37.146C74.4313 37.12 74.4335 37.092 74.4379 37.066C74.4402 37.052 74.4446 37.036 74.4491 37.022C74.4602 36.974 74.4735 36.928 74.4936 36.878L74.5136 36.83C74.5559 36.736 74.6115 36.64 74.6805 36.542C74.6871 36.532 74.696 36.522 74.7027 36.512C74.765 36.428 74.8317 36.342 74.9074 36.252Z" fill="url(#paint2_radial_84_554)"/>
<path d="M71.243 31.9678C71.9861 33.7998 74.4736 36.9178 74.4736 36.9178C74.4802 36.8998 74.4891 36.8838 74.4958 36.8658C74.6271 36.5458 74.9341 36.2058 75.3368 35.8238C76.4604 34.7598 77.6818 32.2938 76.5471 29.7898C76.5538 29.7758 76.229 29.1317 75.8241 28.8957L70.8692 28.8857C70.7268 29.2777 71.0984 31.6118 71.243 31.9678Z" fill="url(#paint3_radial_84_554)"/>
<path d="M72.5843 29.9219H57.4128C55.6329 29.9219 54.1756 31.3159 54.1756 33.0219C54.1756 34.7279 55.6307 36.1219 57.4128 36.1219H72.5865C74.3664 36.1219 75.8237 34.7279 75.8237 33.0219C75.8237 31.3159 74.3664 29.9219 72.5843 29.9219Z" fill="#E59600"/>
<path d="M65.0444 20.4578H65.0355C53.1858 20.5158 55.2372 33.2139 55.2372 33.2139C55.2372 33.2139 55.9536 42.68 64.5972 42.99C64.6284 42.992 64.6595 42.992 64.6885 42.994C64.8019 42.998 64.9198 43 65.0378 43H65.0422C65.1624 43 65.2803 42.998 65.3982 42.994C65.4271 42.994 65.456 42.992 65.485 42.99C74.122 42.682 74.7049 33.3699 74.7049 33.3699C74.7049 33.3699 77.328 20.5178 65.0444 20.4578Z" fill="#543930"/>
<path d="M65.0444 20.4578H65.0355C53.1858 20.5158 55.2372 33.2139 55.2372 33.2139C55.2372 33.2139 55.9803 43 65.04 43C74.0997 43 74.7049 33.3719 74.7049 33.3719C74.7049 33.3719 77.328 20.5178 65.0444 20.4578Z" fill="url(#paint4_radial_84_554)"/>
<path d="M72.7136 36.0399C72.3421 36.9999 71.7325 37.4939 70.7691 37.6799C69.1939 38.0479 68.72 36.1259 64.9955 36.1259C61.2711 36.1259 60.4924 37.9919 58.9372 37.6699C57.709 37.4319 57.273 36.2439 57.0082 35.3639C56.3652 33.2119 56.9993 28.0978 57.2196 27.5658C57.5288 26.8158 58.6457 24.3738 65.0912 24.3738C71.5367 24.3738 72.6024 26.8178 72.9117 27.5658C73.152 28.1458 73.8127 33.1919 72.7136 36.0399ZM65.0534 39.6859C66.197 39.6859 67.4652 39.0619 68.0859 38.5839C68.2505 38.4599 68.1504 38.2179 67.9346 38.2179H62.1499C61.9341 38.2179 61.8362 38.4599 61.9986 38.5839C62.6305 39.0619 63.912 39.6859 65.0534 39.6859Z" fill="#FFCA28"/>
<path d="M66.2037 35.366C66.1703 35.354 66.1391 35.348 66.1058 35.344H63.9766C63.9432 35.348 63.912 35.354 63.8787 35.366C63.6873 35.436 63.5805 35.616 63.6695 35.806C63.763 35.998 64.1857 36.534 65.04 36.534C65.8944 36.534 66.3171 35.998 66.4106 35.806C66.5018 35.618 66.3972 35.438 66.2037 35.366Z" fill="#E59600"/>
<path d="M60.3185 34.2479C61.1381 34.2479 61.8025 33.6292 61.8025 32.8659C61.8025 32.1026 61.1381 31.4839 60.3185 31.4839C59.4989 31.4839 58.8345 32.1026 58.8345 32.8659C58.8345 33.6292 59.4989 34.2479 60.3185 34.2479Z" fill="#404040"/>
<path d="M69.7676 34.2479C70.5872 34.2479 71.2516 33.6292 71.2516 32.8659C71.2516 32.1026 70.5872 31.4839 69.7676 31.4839C68.948 31.4839 68.2836 32.1026 68.2836 32.8659C68.2836 33.6292 68.948 34.2479 69.7676 34.2479Z" fill="#404040"/>
<path d="M62.3455 30.7058C62.0808 30.3918 61.4689 29.9338 60.2831 29.9338C59.0972 29.9338 58.4831 30.3918 58.2206 30.7058C58.1027 30.8458 58.1338 31.0058 58.2139 31.1019C58.2896 31.1919 58.5098 31.2759 58.7568 31.2019C59.0015 31.1279 59.4821 30.9038 60.2831 30.8998C61.0863 30.9058 61.5646 31.1279 61.8093 31.2019C62.0541 31.2779 62.2766 31.1939 62.3522 31.1019C62.4323 31.0058 62.4635 30.8438 62.3455 30.7058ZM71.7813 30.7058C71.5165 30.3918 70.9047 29.9338 69.7188 29.9338C68.5329 29.9338 67.9189 30.3918 67.6563 30.7058C67.5384 30.8458 67.5696 31.0058 67.6497 31.1019C67.7253 31.1919 67.9456 31.2759 68.1925 31.2019C68.4373 31.1279 68.9178 30.9038 69.7188 30.8998C70.522 30.9058 71.0003 31.1279 71.2451 31.2019C71.4898 31.2779 71.7123 31.1939 71.7879 31.1019C71.868 31.0058 71.897 30.8438 71.7813 30.7058Z" fill="#6D4C41"/>
<path d="M75.3968 23.8738C74.765 23.0118 73.3455 21.8598 72.0728 21.7838C71.8682 20.6837 70.5577 19.7517 69.2917 19.3897C65.8588 18.4137 63.6272 19.5077 62.428 20.0957C62.1788 20.2177 60.5702 21.0197 59.4422 20.4437C58.7369 20.0837 58.7503 19.1057 58.7503 19.1057C58.7503 19.1057 56.5387 19.8617 57.2952 21.9718C56.5365 21.9998 55.5397 22.2878 55.0124 23.2458C54.385 24.3878 54.6075 25.3418 54.79 25.7998C54.1358 26.2978 53.3149 27.3598 53.8778 28.7378C54.3027 29.7758 55.9981 30.2518 55.9981 30.2518C55.8779 32.1199 56.2651 33.2699 56.4697 33.7359C56.5053 33.8159 56.6344 33.8099 56.6566 33.7259C56.9125 32.8019 57.7891 29.5778 57.7023 29.0158C57.7023 29.0158 60.6436 28.4918 63.4492 26.6338C64.021 26.2558 64.6373 25.9338 65.2981 25.6978C68.8223 24.4358 69.5587 26.5878 69.5587 26.5878C69.5587 26.5878 72.0016 26.1658 72.7381 29.2158C73.014 30.3598 73.2031 32.1879 73.3588 33.4679C73.37 33.5579 73.5057 33.5779 73.5457 33.4939C73.7927 32.9859 74.2844 31.9779 74.4023 30.9498C74.4446 30.5878 75.5281 30.1098 75.9931 28.5578C76.6205 26.4858 75.8529 24.4958 75.3968 23.8738Z" fill="#543930"/>
<path d="M74.398 30.9578C74.4403 30.5958 75.5238 30.1178 75.9888 28.5658C76.0378 28.3998 76.08 28.2318 76.1201 28.0638C76.4983 26.1778 75.8175 24.4458 75.397 23.8738C74.8119 23.0778 73.557 22.0338 72.3645 21.8197C72.2621 21.8077 72.1598 21.7977 72.0641 21.7917C72.0641 21.7917 72.1487 22.2918 71.924 22.6918C71.6325 23.2098 71.0407 23.3318 71.0407 23.3318C74.1444 26.1238 73.9219 28.4598 74.398 30.9578Z" fill="url(#paint5_radial_84_554)"/>
<path d="M63.1779 19.7439C62.8931 19.8679 62.6439 19.9899 62.4281 20.0959C62.1789 20.2179 60.5703 21.0199 59.4423 20.4439C58.7482 20.0899 58.7504 19.1439 58.7504 19.1099C58.4322 19.4759 57.4666 22.0899 60.2878 22.2639C61.5048 22.3399 62.2546 21.3859 62.6973 20.5779C62.8575 20.2859 63.1089 19.8579 63.1779 19.7439Z" fill="url(#paint6_radial_84_554)"/>
<path d="M68.9357 19.2958C70.8335 19.7578 71.759 20.6259 72.0683 21.7859C72.1595 22.1259 72.2685 25.3019 65.5249 21.6939C63.0175 20.3519 63.7027 19.5118 63.9964 19.4158C65.1422 19.0418 66.8087 18.7778 68.9357 19.2958Z" fill="url(#paint7_radial_84_554)"/>
<path d="M58.7412 19.1117C58.7367 19.1137 58.7323 19.1157 58.7256 19.1177H58.7234C58.4809 19.2097 56.5853 19.9977 57.295 21.9737L59.313 22.2657C57.5264 20.6377 58.7478 19.1077 58.7478 19.1077C58.7478 19.1077 58.7434 19.1097 58.7412 19.1117Z" fill="url(#paint8_radial_84_554)"/>
<path d="M58.541 22.1539L57.2951 21.9739C57.2461 21.9739 57.0793 21.9879 56.9903 21.9979C56.2872 22.0859 55.4596 22.4119 55.0123 23.2479C54.5318 24.1479 54.5451 24.9199 54.6742 25.4359C54.712 25.6099 54.7899 25.8039 54.7899 25.8039C54.7899 25.8039 55.4084 25.2779 56.8768 25.2439L58.541 22.1539Z" fill="url(#paint9_radial_84_554)"/>
<path d="M54.7299 25.8478C54.1158 26.3378 53.2882 27.4318 53.8978 28.7858C54.3584 29.8078 55.9959 30.2518 55.9959 30.2518C55.9959 30.2558 56.3229 30.3438 56.492 30.3438L56.8747 25.2397C56.0893 25.2397 55.3351 25.4517 54.8478 25.7558C54.8523 25.7658 54.7277 25.8398 54.7299 25.8478Z" fill="url(#paint10_radial_84_554)"/>
<path d="M99.4375 35V23.7266H103.688C105.805 23.7266 107.305 25.1875 107.305 27.3281V27.3438C107.305 29.4844 105.805 30.9766 103.688 30.9766H100.844V35H99.4375ZM103.328 24.9766H100.844V29.7266H103.328C104.938 29.7266 105.867 28.8438 105.867 27.3594V27.3438C105.867 25.8594 104.938 24.9766 103.328 24.9766ZM112.641 35.1484C110.234 35.1484 108.781 33.4609 108.781 30.8203V30.8125C108.781 28.2109 110.266 26.4297 112.555 26.4297C114.844 26.4297 116.234 28.1328 116.234 30.6484V31.1797H110.172C110.211 32.9219 111.172 33.9375 112.672 33.9375C113.812 33.9375 114.516 33.3984 114.742 32.8906L114.773 32.8203H116.133L116.117 32.8828C115.828 34.0234 114.625 35.1484 112.641 35.1484ZM112.547 27.6406C111.297 27.6406 110.344 28.4922 110.195 30.0938H114.852C114.711 28.4297 113.789 27.6406 112.547 27.6406ZM121.336 35.0625C119.602 35.0625 118.875 34.4219 118.875 32.8125V27.7031H117.547V26.5781H118.875V24.3984H120.281V26.5781H122.125V27.7031H120.281V32.4688C120.281 33.4609 120.625 33.8594 121.5 33.8594C121.742 33.8594 121.875 33.8516 122.125 33.8281V34.9844C121.859 35.0312 121.602 35.0625 121.336 35.0625ZM127.469 35.1484C125.062 35.1484 123.609 33.4609 123.609 30.8203V30.8125C123.609 28.2109 125.094 26.4297 127.383 26.4297C129.672 26.4297 131.062 28.1328 131.062 30.6484V31.1797H125C125.039 32.9219 126 33.9375 127.5 33.9375C128.641 33.9375 129.344 33.3984 129.57 32.8906L129.602 32.8203H130.961L130.945 32.8828C130.656 34.0234 129.453 35.1484 127.469 35.1484ZM127.375 27.6406C126.125 27.6406 125.172 28.4922 125.023 30.0938H129.68C129.539 28.4297 128.617 27.6406 127.375 27.6406ZM133.172 35V26.5781H134.531V27.8281H134.656C134.977 26.9453 135.766 26.4297 136.906 26.4297C137.164 26.4297 137.453 26.4609 137.586 26.4844V27.8047C137.305 27.7578 137.047 27.7266 136.75 27.7266C135.453 27.7266 134.531 28.5469 134.531 29.7812V35H133.172Z" fill="black"/>
<rect x="231" y="17" width="36" height="24" rx="12" fill="#FC9D45"/>
<path d="M244.709 25.3457C246.256 25.3457 247.891 26.4355 247.891 29.6172V29.6289C247.891 32.5117 246.689 34.1992 244.639 34.1992C243.221 34.1992 242.166 33.3672 241.879 32.1191L241.861 32.043H242.922L242.945 32.1074C243.203 32.8164 243.795 33.2559 244.65 33.2559C246.186 33.2559 246.812 31.7559 246.877 29.9922C246.883 29.9277 246.883 29.8574 246.883 29.793H246.771C246.461 30.4844 245.664 31.0996 244.521 31.0996C242.934 31.0996 241.75 29.8926 241.75 28.2695V28.2578C241.75 26.5703 243.004 25.3457 244.709 25.3457ZM244.703 30.1797C245.799 30.1797 246.631 29.377 246.631 28.2754V28.2695C246.631 27.1562 245.793 26.2773 244.721 26.2773C243.66 26.2773 242.811 27.1387 242.811 28.2344V28.2461C242.811 29.3711 243.607 30.1797 244.703 30.1797ZM252.414 34.1992C250.545 34.1992 249.432 32.4941 249.432 29.7754V29.7637C249.432 27.0449 250.545 25.3457 252.414 25.3457C254.283 25.3457 255.408 27.0449 255.408 29.7637V29.7754C255.408 32.4941 254.283 34.1992 252.414 34.1992ZM252.414 33.2793C253.627 33.2793 254.348 31.9316 254.348 29.7754V29.7637C254.348 27.6074 253.627 26.2715 252.414 26.2715C251.201 26.2715 250.492 27.6074 250.492 29.7637V29.7754C250.492 31.9316 251.201 33.2793 252.414 33.2793Z" fill="white"/>
<path d="M0 76.3999H296V152.8H0V76.3999Z" fill="white"/>
<path d="M296 150.8H0V154.8H296V150.8Z" fill="#E7E6E6"/>
<path d="M24.8354 114.946L31.0604 118.711C32.2004 119.401 33.5954 118.381 33.2954 117.091L31.6454 110.011L37.1504 105.241C38.1554 104.371 37.6154 102.721 36.2954 102.616L29.0504 102.001L26.2154 95.3112C25.7054 94.0962 23.9654 94.0962 23.4554 95.3112L20.6204 101.986L13.3754 102.601C12.0554 102.706 11.5154 104.356 12.5204 105.226L18.0254 109.996L16.3754 117.076C16.0754 118.366 17.4704 119.386 18.6104 118.696L24.8354 114.946Z" fill="#E7E6E6"/>
<path d="M22.9434 112.4V111.673L25.8027 108.58C26.8809 107.414 27.1973 106.974 27.1973 106.236V106.224C27.1973 105.333 26.5938 104.666 25.5977 104.666C24.584 104.666 23.9102 105.328 23.9102 106.324L23.9043 106.335L22.8965 106.33L22.8848 106.324C22.8906 104.824 24.0508 103.746 25.668 103.746C27.1445 103.746 28.2754 104.748 28.2754 106.113V106.125C28.2754 107.091 27.8594 107.794 26.3301 109.371L24.4082 111.357V111.451H28.416V112.4H22.9434Z" fill="white"/>
<path d="M72.7545 107.985C72.7545 112.393 69.1178 115.974 64.6431 115.974C60.1666 115.974 56.5303 112.396 56.5303 107.985V103.718C56.5303 99.3059 60.1657 95.7283 64.6431 95.7283C69.1195 95.7283 72.7545 99.3067 72.7545 103.718V107.985Z" fill="#593212"/>
<path d="M59.4351 119.949L59.5775 118.808C59.8992 116.236 58.9986 114.033 57.5658 113.888C56.1356 113.745 54.7135 115.715 54.394 118.288L54.1866 119.947H59.4351" fill="#EA307C"/>
<path d="M59.4351 119.949L59.5775 118.808C59.8992 116.235 58.9986 114.033 57.5657 113.888C56.1356 113.745 54.7134 115.715 54.394 118.288L54.2013 119.831C54.2476 119.867 54.3032 119.906 54.3552 119.947H59.4351M69.5681 119.933L69.4275 118.793C69.1031 116.221 70.006 114.019 71.4388 113.872C72.8703 113.73 74.292 115.698 74.6137 118.272L74.8206 119.931L69.5681 119.932" fill="#EA307C"/>
<path d="M71.4664 119.949V117.912C71.4664 114.854 68.3773 112.373 64.5666 112.373C60.7527 112.373 57.6601 114.854 57.6601 117.912V119.949H71.4677" fill="#EA307C"/>
<path d="M68.0038 111.027H60.9936C60.9247 111.721 60.522 113.74 60.7387 113.872C60.934 113.991 63.4423 114.176 64.4983 114.176C65.5551 114.176 68.0625 113.991 68.2588 113.872C68.475 113.74 68.0737 111.722 68.0038 111.027Z" fill="#CB2874"/>
<path d="M56.7875 106.321C56.7875 109.167 60.3006 111.472 64.6422 111.472C68.9808 111.472 72.4996 109.166 72.4996 106.321C72.4996 103.478 68.9821 99.2627 64.6422 99.2627C60.3006 99.2627 56.7875 103.478 56.7875 106.321Z" fill="#FABE67"/>
<path d="M63.1205 104.403C63.1205 105.098 62.6025 105.665 61.964 105.665C61.3241 105.665 60.8097 105.098 60.8097 104.403C60.8097 103.703 61.3236 103.142 61.964 103.142C62.6025 103.141 63.1205 103.703 63.1205 104.403ZM68.6159 104.403C68.6159 105.098 68.1002 105.665 67.4616 105.665C66.8209 105.665 66.3011 105.098 66.3011 104.403C66.3011 103.703 66.8209 103.142 67.4616 103.142C68.1002 103.141 68.6159 103.703 68.6159 104.403Z" fill="#25333A"/>
<path d="M67.0998 96.9171C67.1892 95.6887 65.311 95.0311 64.2982 94.9051C63.2841 94.7803 62.5801 94.9791 61.7672 95.2487C59.4346 96.0235 57.8785 97.8455 56.7598 99.6887C55.2131 101.725 54.1234 103.893 54.4976 106.46C54.7152 107.956 55.4805 109.367 56.3456 110.666C56.8933 111.492 57.5377 112.265 58.0641 113.102C58.4063 113.644 57.9849 115.537 56.8933 115.614C55.8018 115.692 55.8183 118.111 58.3533 118.104C60.7286 118.095 61.6079 116.203 61.1153 114.492C60.6218 112.78 58.5046 112.024 58.1967 110.521C57.9248 109.195 57.8718 107.13 58.3262 105.852C58.6968 104.682 59.5708 102.763 60.551 101.919C61.8668 100.785 62.1414 100.746 63.0167 99.9347C64.4081 98.6467 67.3423 98.7171 67.0998 96.9155" fill="#7C4622"/>
<path d="M67.0909 96.8169C66.2833 97.5137 65.4022 98.1557 64.5123 98.7893C62.7533 100.039 60.7015 100.971 59.403 102.629C57.8492 104.615 56.9601 106.661 57.2249 109.073C57.4189 110.834 58.8686 111.992 59.399 113.622C59.8956 115.144 59.2006 117.837 56.6139 116.67C55.8788 116.338 56.2717 118.111 58.3476 118.105C60.7228 118.096 61.6079 116.204 61.1162 114.493C60.6227 112.781 59.2344 112.135 58.6417 110.522C58.1705 109.24 57.8719 107.13 58.3262 105.853C59.7199 102.254 62.1744 100.924 63.119 100.177C63.5075 99.8697 66.5787 98.0697 67.0927 96.9177C67.0958 96.8829 67.0918 96.8505 67.0909 96.8169Z" fill="#593212"/>
<path d="M55.393 108.951C55.0602 106.843 55.5497 104.71 56.7186 102.825C57.8693 100.97 59.2171 99.4173 61.2743 98.2189C62.4704 97.5221 64.4683 96.5097 65.7329 95.3113C65.2341 95.0905 64.6953 94.9553 64.2921 94.9053C63.278 94.7801 62.574 94.9789 61.7606 95.2485C59.4285 96.0241 57.8738 97.8457 56.7533 99.6925C55.207 101.729 54.1173 103.897 54.4911 106.464C54.6285 107.406 54.9823 108.313 55.442 109.181C55.4264 109.105 55.4055 109.027 55.393 108.953" fill="#854F28"/>
<path d="M72.7056 100.681C71.8748 97.9015 69.6864 95.1215 67.1278 95.7295C65.4044 96.1391 64.3698 98.2115 64.5144 98.7883C64.7819 99.8595 67.0424 100.23 68.2202 101.434C69.2459 102.483 70.1287 103.228 70.992 104.341C71.7631 105.335 71.113 107.585 71.1437 108.242C71.1717 108.899 70.6111 110.584 70.1332 111.257C69.8617 111.64 70.3467 112.158 70.68 111.848C73.6979 109.028 73.8963 104.67 72.7056 100.681Z" fill="#7C4622"/>
<path d="M70.6039 100.894C71.9597 102.098 72.7433 103.465 73.1594 105.086C73.243 105.408 73.2991 105.75 73.3356 106.106C73.4904 104.338 73.2381 102.474 72.7037 100.681C71.8734 97.9019 69.685 95.1215 67.1264 95.7295C65.9143 96.0179 65.1093 97.1199 64.7426 97.9543C66.1688 99.3387 69.1154 99.5731 70.6039 100.894Z" fill="#854F28"/>
<path d="M70.6939 104.069C71.465 105.063 71.1113 107.586 71.1433 108.244C71.1714 108.901 70.6102 110.585 70.1323 111.258C69.937 111.535 70.1359 111.879 70.386 111.933C72.6709 109.031 73.2663 104.154 70.4478 102.089C68.6296 100.757 66.1649 100.341 64.5323 98.9915C65.194 100.013 66.1712 100.734 67.5915 101.57C68.9491 102.369 69.8342 102.957 70.6957 104.069" fill="#593212"/>
<path d="M64.5623 108.757C64.689 108.757 64.8144 108.78 64.9315 108.823C65.0485 108.867 65.1548 108.931 65.2443 109.011C65.3339 109.092 65.4049 109.188 65.4533 109.293C65.5017 109.398 65.5266 109.511 65.5266 109.625C65.5265 109.739 65.5015 109.851 65.453 109.957C65.4044 110.062 65.3333 110.157 65.2437 110.238C65.1541 110.318 65.0477 110.382 64.9306 110.426C64.8136 110.469 64.6881 110.492 64.5614 110.491C64.3056 110.491 64.0602 110.4 63.8794 110.237C63.6986 110.075 63.5971 109.854 63.5972 109.624C63.5973 109.394 63.699 109.173 63.88 109.011C64.061 108.848 64.3065 108.757 64.5623 108.757Z" fill="#633F1A"/>
<path opacity="0.6" d="M65.3337 106.953C65.3337 107.231 65.0698 107.226 64.7107 107.226C64.3503 107.226 64.0317 107.232 64.0317 106.953C64.0317 106.672 64.3236 106.448 64.6832 106.448C65.0418 106.449 65.3337 106.673 65.3337 106.953Z" fill="#C07929"/>
<path d="M99.4375 111.4V100.126H101.07L104.93 109.533H105.055L108.914 100.126H110.547V111.4H109.234V102.791H109.148L105.586 111.4H104.398L100.836 102.791H100.75V111.4H99.4375ZM115.562 111.548C113.961 111.548 112.75 110.58 112.75 109.048V109.033C112.75 107.533 113.859 106.666 115.82 106.548L118.234 106.4V105.634C118.234 104.595 117.602 104.033 116.344 104.033C115.336 104.033 114.672 104.408 114.453 105.064L114.445 105.087H113.086L113.094 105.041C113.312 103.72 114.594 102.83 116.391 102.83C118.445 102.83 119.594 103.884 119.594 105.634V111.4H118.234V110.158H118.109C117.578 111.056 116.695 111.548 115.562 111.548ZM114.141 109.017C114.141 109.869 114.867 110.369 115.844 110.369C117.227 110.369 118.234 109.462 118.234 108.259V107.494L115.984 107.634C114.703 107.712 114.141 108.166 114.141 109.001V109.017ZM122.078 111.4V102.978H123.438V104.228H123.562C123.883 103.345 124.672 102.83 125.812 102.83C126.07 102.83 126.359 102.861 126.492 102.884V104.205C126.211 104.158 125.953 104.126 125.656 104.126C124.359 104.126 123.438 104.947 123.438 106.181V111.4H122.078ZM128.969 114.353C128.789 114.353 128.555 114.337 128.367 114.306V113.189C128.531 113.22 128.742 113.228 128.93 113.228C129.703 113.228 130.172 112.876 130.477 111.908L130.633 111.408L127.516 102.978H128.969L131.281 109.908H131.406L133.711 102.978H135.141L131.852 111.916C131.156 113.806 130.461 114.353 128.969 114.353Z" fill="black"/>
<rect x="231" y="93.3999" width="36" height="24" rx="12" fill="#FC9D45"/>
<path d="M244.832 110.541C243.039 110.541 241.762 109.533 241.762 108.115V108.103C241.762 107.06 242.494 106.193 243.578 105.941V105.917C242.652 105.63 242.066 104.927 242.066 104.037V104.025C242.066 102.748 243.232 101.804 244.832 101.804C246.432 101.804 247.598 102.748 247.598 104.025V104.037C247.598 104.927 247.012 105.63 246.086 105.917V105.941C247.17 106.193 247.902 107.06 247.902 108.103V108.115C247.902 109.533 246.625 110.541 244.832 110.541ZM244.832 105.525C245.852 105.525 246.549 104.945 246.549 104.125V104.113C246.549 103.292 245.852 102.712 244.832 102.712C243.812 102.712 243.115 103.292 243.115 104.113V104.125C243.115 104.945 243.812 105.525 244.832 105.525ZM244.832 109.621C245.998 109.621 246.83 108.964 246.83 108.05V108.039C246.83 107.113 246.004 106.451 244.832 106.451C243.66 106.451 242.834 107.113 242.834 108.039V108.05C242.834 108.964 243.666 109.621 244.832 109.621ZM252.438 110.599C250.568 110.599 249.455 108.894 249.455 106.175V106.164C249.455 103.445 250.568 101.746 252.438 101.746C254.307 101.746 255.432 103.445 255.432 106.164V106.175C255.432 108.894 254.307 110.599 252.438 110.599ZM252.438 109.679C253.65 109.679 254.371 108.332 254.371 106.175V106.164C254.371 104.007 253.65 102.671 252.438 102.671C251.225 102.671 250.516 104.007 250.516 106.164V106.175C250.516 108.332 251.225 109.679 252.438 109.679Z" fill="white"/>
<path d="M0 152.8H296V229.2H0V152.8Z" fill="white"/>
<path d="M296 227.2H0V231.2H296V227.2Z" fill="#E7E6E6"/>
<path d="M24.8354 191.346L31.0604 195.111C32.2004 195.801 33.5954 194.781 33.2954 193.491L31.6454 186.411L37.1504 181.641C38.1554 180.771 37.6154 179.121 36.2954 179.016L29.0504 178.401L26.2154 171.711C25.7054 170.496 23.9654 170.496 23.4554 171.711L20.6204 178.386L13.3754 179.001C12.0554 179.106 11.5154 180.756 12.5204 181.626L18.0254 186.396L16.3754 193.476C16.0754 194.766 17.4704 195.786 18.6104 195.096L24.8354 191.346Z" fill="#F86918"/>
<path d="M25.8203 188.941C24.0742 188.941 22.9434 187.968 22.832 186.632L22.8262 186.562H23.8398L23.8457 186.62C23.9277 187.452 24.6953 188.027 25.8203 188.027C26.9277 188.027 27.6836 187.406 27.6836 186.509V186.497C27.6836 185.46 26.9395 184.88 25.7559 184.88H24.6953V183.99H25.709C26.7168 183.99 27.4199 183.368 27.4199 182.525V182.513C27.4199 181.628 26.8398 181.118 25.8086 181.118C24.8125 181.118 24.1035 181.646 24.0156 182.501L24.0098 182.56H22.9961L23.002 182.501C23.1367 181.124 24.2266 180.204 25.8086 180.204C27.4199 180.204 28.4805 181.101 28.4805 182.384V182.396C28.4805 183.439 27.7422 184.154 26.6875 184.376V184.4C27.918 184.505 28.7559 185.273 28.7559 186.474V186.486C28.7559 187.898 27.5137 188.941 25.8203 188.941Z" fill="white"/>
<path d="M76.1534 176.888C75.6374 176.117 74.8063 175.532 73.8168 175.245C72.7795 174.943 71.8896 174.365 71.323 173.569C70.9436 173.031 70.4066 172.586 69.7641 172.276C69.1217 171.966 68.3956 171.802 67.6564 171.801C67.0591 171.801 66.4925 171.909 65.9744 172.094C65.2704 172.354 64.4783 172.354 63.7743 172.094C63.2388 171.903 62.6643 171.803 62.0834 171.801C60.5477 171.801 59.2079 172.488 58.4445 173.519C57.851 174.326 56.9513 174.937 55.8933 175.254C54.8604 175.562 54.0041 176.191 53.4974 177.014C53.1305 177.612 52.9614 178.282 53.0078 178.955C53.0543 179.628 53.3147 180.278 53.7614 180.835C54.0847 181.238 54.2608 181.715 54.2608 182.201V183.153C54.7888 182.838 54.3102 183.778 54.236 184.052V188.551C54.236 189.946 55.217 191.189 56.7081 191.706H73.0237C74.5149 191.189 75.4958 189.945 75.4958 188.551V184.471C75.3663 184.046 74.594 182.636 75.4592 183.146V182.201C75.4592 181.715 75.6352 181.238 75.9576 180.835C76.4264 180.26 76.6936 179.584 76.7282 178.886C76.7629 178.187 76.5636 177.494 76.1534 176.888Z" fill="#593B39"/>
<path d="M58.933 185.21C58.933 185.541 58.8562 185.867 58.7072 186.173C58.5581 186.478 58.3396 186.755 58.0641 186.988C57.7886 187.222 57.4616 187.407 57.1017 187.533C56.7418 187.66 56.356 187.725 55.9665 187.725C55.5769 187.725 55.1912 187.66 54.8313 187.533C54.4713 187.407 54.1443 187.222 53.8689 186.988C53.5934 186.755 53.3749 186.478 53.2258 186.173C53.0767 185.867 53 185.541 53 185.21C53 184.544 53.3125 183.904 53.8689 183.432C54.4252 182.961 55.1797 182.696 55.9665 182.696C56.7532 182.696 57.5078 182.961 58.0641 183.432C58.6204 183.904 58.933 184.544 58.933 185.21ZM76.7318 185.21C76.7318 185.541 76.6551 185.867 76.506 186.173C76.357 186.478 76.1384 186.755 75.863 186.988C75.5875 187.222 75.2605 187.407 74.9006 187.533C74.5407 187.66 74.1549 187.725 73.7654 187.725C73.3758 187.725 72.99 187.66 72.6301 187.533C72.2702 187.407 71.9432 187.222 71.6677 186.988C71.3923 186.755 71.1738 186.478 71.0247 186.173C70.8756 185.867 70.7989 185.541 70.7989 185.21C70.7989 184.544 71.1114 183.904 71.6677 183.432C72.2241 182.961 72.9786 182.696 73.7654 182.696C74.5521 182.696 75.3067 182.961 75.863 183.432C76.4193 183.904 76.7318 184.544 76.7318 185.21Z" fill="#BB806E"/>
<path d="M55.4138 182.73L55.9705 189.945C56.1986 191.419 57.0515 192.771 58.37 193.751C59.6885 194.73 61.3824 195.269 63.1355 195.267H66.6132C68.3662 195.269 70.0598 194.73 71.3781 193.75C72.6964 192.771 73.5492 191.419 73.7773 189.945L74.3093 182.742C74.2931 182.739 74.277 182.737 74.2608 182.734L74.3745 181.129C74.3547 179.93 73.2403 178.941 71.8332 178.891H69.2514C68.3872 178.89 67.5419 178.676 66.8181 178.276C66.0942 177.876 65.5229 177.306 65.1735 176.636C65.0831 176.444 64.9267 176.279 64.7246 176.162C64.5224 176.046 64.2838 175.983 64.0393 175.983H61.6918C58.2893 175.983 55.4721 178.346 55.4721 181.263V182.723C55.4526 182.725 55.4332 182.727 55.4138 182.73Z" fill="#C68D7B"/>
<path d="M64.1608 184.814L63.1818 187.471C63.1354 187.597 63.1249 187.732 63.1513 187.862C63.1777 187.993 63.2402 188.117 63.3337 188.223C63.4272 188.33 63.5491 188.416 63.6894 188.475C63.8297 188.534 63.9844 188.564 64.141 188.563H65.5906C66.2709 188.563 66.7505 188.008 66.5498 187.47L65.5708 184.813C65.3602 184.225 64.3813 184.225 64.1608 184.813" fill="#AB6A55"/>
<path d="M64.866 190.151C63.9784 190.156 63.1025 189.98 62.3119 189.638C62.0597 189.529 61.7878 189.77 61.947 189.965C62.2665 190.373 62.7005 190.707 63.2099 190.938C63.7194 191.168 64.2884 191.288 64.866 191.287C65.4436 191.288 66.0126 191.168 66.5221 190.938C67.0315 190.707 67.4655 190.373 67.785 189.965C67.9432 189.763 67.6723 189.529 67.4201 189.638C66.6299 189.981 65.7537 190.157 64.866 190.151Z" fill="#990838"/>
<path d="M57.9589 184.68C58.1018 184.199 58.4336 183.773 58.8997 183.473C59.3658 183.173 59.9385 183.017 60.5236 183.029C61.1087 183.041 61.6714 183.222 62.1191 183.542C62.5668 183.861 62.8729 184.3 62.9871 184.787C62.9983 184.839 62.9958 184.892 62.9799 184.944C62.9639 184.995 62.9347 185.042 62.8946 185.083C62.8544 185.123 62.8042 185.155 62.7476 185.177C62.6909 185.2 62.6292 185.211 62.5668 185.21H58.4563C58.3792 185.211 58.3029 185.197 58.2332 185.169C58.1636 185.141 58.1025 185.099 58.0545 185.048C58.0065 184.997 57.9729 184.937 57.9564 184.873C57.9398 184.809 57.9407 184.743 57.9589 184.68ZM71.7728 184.68C71.6305 184.209 71.3079 183.792 70.8557 183.494C70.4034 183.195 69.8471 183.033 69.2741 183.031C68.6776 183.03 68.0992 183.205 67.638 183.525C67.1767 183.845 66.8612 184.292 66.7456 184.788C66.7346 184.84 66.7372 184.893 66.7532 184.944C66.7692 184.995 66.7982 185.042 66.8383 185.082C66.8783 185.123 66.9283 185.155 66.9848 185.177C67.0412 185.199 67.1027 185.211 67.1649 185.21H71.2754C71.3526 185.211 71.4289 185.197 71.4985 185.169C71.5681 185.141 71.6293 185.099 71.6773 185.048C71.7252 184.997 71.7588 184.937 71.7754 184.873C71.7919 184.809 71.7911 184.743 71.7728 184.68Z" fill="white"/>
<path d="M59.1889 184.839C59.189 184.64 59.2392 184.443 59.3363 184.262C59.4334 184.081 59.5751 183.92 59.7519 183.789C59.9287 183.658 60.1365 183.561 60.3613 183.504C60.5861 183.446 60.8228 183.431 61.0554 183.457C61.288 183.484 61.5111 183.553 61.7099 183.658C61.9086 183.764 62.0784 183.905 62.2076 184.071C62.3369 184.237 62.4228 184.425 62.4595 184.621C62.4962 184.818 62.4829 185.019 62.4204 185.21H59.2473C59.2078 185.089 59.1888 184.965 59.1889 184.839ZM70.5427 184.839C70.5427 184.063 69.801 183.444 68.8933 183.444C68.677 183.443 68.4627 183.478 68.2627 183.548C68.0628 183.618 67.8812 183.721 67.7286 183.85C67.5759 183.98 67.4552 184.135 67.3736 184.304C67.2919 184.474 67.2509 184.656 67.2528 184.839C67.2528 184.971 67.2726 185.095 67.3122 185.21H70.4843C70.5239 185.086 70.5436 184.971 70.5436 184.839" fill="#7D4533"/>
<path d="M60.8385 184.046C61.0001 184.046 61.159 184.081 61.2998 184.148C61.4407 184.215 61.5586 184.312 61.6422 184.429C61.7258 184.546 61.7722 184.68 61.777 184.817C61.7817 184.954 61.7445 185.089 61.6691 185.21H60.0089C59.9334 185.089 59.8963 184.954 59.901 184.817C59.9057 184.68 59.9521 184.546 60.0357 184.429C60.1193 184.312 60.2373 184.215 60.3781 184.148C60.519 184.081 60.6779 184.046 60.8395 184.046M68.8836 184.046C68.722 184.046 68.5631 184.081 68.4222 184.148C68.2814 184.215 68.1634 184.312 68.0798 184.429C67.9962 184.546 67.9498 184.68 67.9451 184.817C67.9404 184.954 67.9776 185.089 68.053 185.21H69.7132C69.7886 185.089 69.8258 184.954 69.8211 184.817C69.8164 184.68 69.7699 184.546 69.6863 184.429C69.6027 184.312 69.4848 184.215 69.3439 184.148C69.2031 184.081 69.0451 184.046 68.8836 184.046Z" fill="black"/>
<path d="M60.5644 184.305C60.5644 184.444 60.4339 184.557 60.2727 184.557C60.234 184.556 60.1957 184.55 60.1601 184.537C60.1244 184.524 60.0921 184.506 60.0649 184.482C60.0377 184.459 60.0162 184.431 60.0017 184.401C59.9871 184.37 59.9797 184.338 59.98 184.305C59.98 184.166 60.1105 184.054 60.2727 184.054C60.4339 184.054 60.5654 184.166 60.5654 184.305M68.6688 184.305C68.6688 184.444 68.5373 184.557 68.3751 184.557C68.3364 184.556 68.2982 184.55 68.2625 184.537C68.2269 184.524 68.1945 184.506 68.1674 184.482C68.1402 184.459 68.1187 184.431 68.1041 184.401C68.0896 184.37 68.0822 184.338 68.0824 184.305C68.0824 184.166 68.214 184.054 68.3751 184.054C68.5373 184.054 68.6688 184.166 68.6688 184.305Z" fill="white"/>
<path d="M70.4803 180.327C71.0489 180.478 71.4246 180.731 71.748 180.97C71.8503 181.045 71.9129 181.152 71.9222 181.267C71.9315 181.381 71.8866 181.495 71.7974 181.581C71.7083 181.668 71.5821 181.721 71.4467 181.729C71.3114 181.737 71.1779 181.699 71.0756 181.623C70.7858 181.409 70.5386 181.25 70.1728 181.153C69.799 181.053 69.2561 181.006 68.3692 181.098C68.3025 181.105 68.2348 181.1 68.1701 181.085C68.1054 181.07 68.0448 181.044 67.9919 181.009C67.9389 180.974 67.8947 180.93 67.8616 180.881C67.8285 180.831 67.8073 180.777 67.7991 180.72C67.7909 180.664 67.7959 180.606 67.8139 180.551C67.8319 180.497 67.8624 180.445 67.9038 180.4C67.9451 180.356 67.9965 180.318 68.055 180.29C68.1135 180.262 68.1779 180.244 68.2446 180.237C69.2166 180.136 69.9206 180.177 70.4803 180.327ZM59.2848 180.506C58.9822 180.607 58.7439 180.715 58.5778 180.799L58.3029 180.954C58.1956 181.024 58.1257 181.128 58.1086 181.242C58.0914 181.356 58.1284 181.471 58.2114 181.562C58.2944 181.653 58.4166 181.712 58.5512 181.726C58.6857 181.741 58.8216 181.71 58.9288 181.639L58.9338 181.636L58.9634 181.617C59.1818 181.496 59.4145 181.394 59.6576 181.312C60.2931 181.1 60.9812 181.027 61.659 181.098C61.7257 181.105 61.7933 181.1 61.858 181.085C61.9228 181.07 61.9833 181.044 62.0363 181.009C62.0892 180.974 62.1335 180.93 62.1665 180.881C62.1996 180.831 62.2209 180.777 62.229 180.72C62.2372 180.664 62.2322 180.606 62.2142 180.551C62.1963 180.497 62.1657 180.445 62.1244 180.4C62.083 180.356 62.0316 180.318 61.9731 180.29C61.9147 180.262 61.8502 180.244 61.7836 180.237C60.9372 180.149 60.0782 180.241 59.2848 180.506Z" fill="#593B39"/>
<path d="M99.4375 187.8V176.527H101.07L104.93 185.933H105.055L108.914 176.527H110.547V187.8H109.234V179.191H109.148L105.586 187.8H104.398L100.836 179.191H100.75V187.8H99.4375ZM113.969 177.753C113.453 177.753 113.031 177.331 113.031 176.816C113.031 176.3 113.453 175.878 113.969 175.878C114.484 175.878 114.906 176.3 114.906 176.816C114.906 177.331 114.484 177.753 113.969 177.753ZM113.281 187.8V179.378H114.641V187.8H113.281ZM120.648 187.948C118.289 187.948 116.781 186.238 116.781 183.566V183.55C116.781 180.933 118.281 179.23 120.641 179.23C122.688 179.23 123.914 180.409 124.164 181.909L124.172 181.956H122.82L122.812 181.933C122.602 181.105 121.852 180.433 120.641 180.433C119.125 180.433 118.172 181.652 118.172 183.55V183.566C118.172 185.503 119.141 186.745 120.641 186.745C121.773 186.745 122.492 186.245 122.805 185.308L122.82 185.261L124.164 185.253L124.148 185.339C123.805 186.863 122.672 187.948 120.648 187.948ZM126.234 187.8V176.034H127.594V180.644H127.719C128.141 179.753 128.93 179.23 130.172 179.23C132.062 179.23 133.117 180.347 133.117 182.347V187.8H131.758V182.675C131.758 181.159 131.133 180.433 129.789 180.433C128.445 180.433 127.594 181.339 127.594 182.816V187.8H126.234ZM137.891 187.948C136.289 187.948 135.078 186.98 135.078 185.448V185.433C135.078 183.933 136.188 183.066 138.148 182.948L140.562 182.8V182.034C140.562 180.995 139.93 180.433 138.672 180.433C137.664 180.433 137 180.808 136.781 181.464L136.773 181.488H135.414L135.422 181.441C135.641 180.12 136.922 179.23 138.719 179.23C140.773 179.23 141.922 180.284 141.922 182.034V187.8H140.562V186.558H140.438C139.906 187.456 139.023 187.948 137.891 187.948ZM136.469 185.417C136.469 186.269 137.195 186.769 138.172 186.769C139.555 186.769 140.562 185.863 140.562 184.659V183.894L138.312 184.034C137.031 184.113 136.469 184.566 136.469 185.402V185.417ZM147.844 187.948C145.438 187.948 143.984 186.261 143.984 183.62V183.613C143.984 181.011 145.469 179.23 147.758 179.23C150.047 179.23 151.438 180.933 151.438 183.448V183.98H145.375C145.414 185.722 146.375 186.738 147.875 186.738C149.016 186.738 149.719 186.198 149.945 185.691L149.977 185.62H151.336L151.32 185.683C151.031 186.823 149.828 187.948 147.844 187.948ZM147.75 180.441C146.5 180.441 145.547 181.292 145.398 182.894H150.055C149.914 181.23 148.992 180.441 147.75 180.441ZM153.625 187.8V176.034H154.984V187.8H153.625Z" fill="black"/>
<rect x="231" y="169.8" width="36" height="24" rx="12" fill="#FC9D45"/>
<path d="M244.932 186.999C243.385 186.999 241.75 185.909 241.75 182.728V182.716C241.75 179.833 242.951 178.146 245.002 178.146C246.42 178.146 247.475 178.978 247.762 180.226L247.779 180.302H246.719L246.695 180.238C246.438 179.529 245.846 179.089 244.99 179.089C243.455 179.089 242.828 180.589 242.764 182.353C242.758 182.417 242.758 182.488 242.758 182.552H242.869C243.18 181.861 243.977 181.245 245.119 181.245C246.707 181.245 247.891 182.452 247.891 184.075V184.087C247.891 185.775 246.637 186.999 244.932 186.999ZM243.01 184.075C243.01 185.189 243.848 186.068 244.92 186.068C245.98 186.068 246.83 185.206 246.83 184.111V184.099C246.83 182.974 246.033 182.165 244.938 182.165C243.842 182.165 243.01 182.968 243.01 184.07V184.075ZM252.414 186.999C250.545 186.999 249.432 185.294 249.432 182.575V182.564C249.432 179.845 250.545 178.146 252.414 178.146C254.283 178.146 255.408 179.845 255.408 182.564V182.575C255.408 185.294 254.283 186.999 252.414 186.999ZM252.414 186.079C253.627 186.079 254.348 184.732 254.348 182.575V182.564C254.348 180.407 253.627 179.072 252.414 179.072C251.201 179.072 250.492 180.407 250.492 182.564V182.575C250.492 184.732 251.201 186.079 252.414 186.079Z" fill="white"/>
<path d="M0 229.2H296V305.6H0V229.2Z" fill="white"/>
<path d="M296 303.6H0V307.6H296V303.6Z" fill="#E7E6E6"/>
<path d="M26.8047 265.2V263.448H22.6855V262.487C23.8281 260.571 25.123 258.509 26.3066 256.745H27.8359V262.505H29.0371V263.448H27.8359V265.2H26.8047ZM23.7637 262.51H26.8105V257.723H26.7402C25.791 259.141 24.6836 260.887 23.7637 262.44V262.51Z" fill="#0B0B0B"/>
<path d="M74.747 268.417C74.3865 267.825 74.8471 267.225 75.6325 266.481C76.8784 265.299 78.2356 262.561 76.9763 259.779C76.983 259.763 76.7271 259.295 76.736 259.279L76.2154 259.255C76.0485 259.233 70.3506 259.223 64.646 259.223C58.9414 259.223 53.2435 259.233 53.0766 259.255C53.0766 259.255 52.309 259.763 52.3157 259.777C51.0564 262.559 52.4136 265.297 53.6595 266.479C54.4449 267.223 54.9055 267.825 54.545 268.415C54.1957 268.989 53.1523 269.073 53.1523 269.073C53.1523 269.073 53.3926 269.661 53.9732 269.978C54.5094 270.27 55.168 270.34 55.6241 270.35C55.6241 270.35 57.404 272.564 62.0585 272.564H67.238C71.8925 272.564 73.6724 270.35 73.6724 270.35C74.1285 270.34 74.787 270.272 75.3232 269.978C75.9039 269.661 76.1442 269.073 76.1442 269.073C76.1442 269.073 75.0985 268.991 74.747 268.417Z" fill="#543930"/>
<path d="M64.6436 272.566V270.108L72.9157 269.52L73.6677 270.352C73.6677 270.352 71.8878 272.566 67.2333 272.566H64.6436Z" fill="url(#paint11_radial_84_554)"/>
<path d="M73.6475 269.28C72.4082 267.588 75.1559 266.958 75.1559 266.958L75.1582 266.96C74.6798 267.494 74.464 267.96 74.7443 268.418C75.0936 268.992 76.1371 269.076 76.1371 269.076C76.1371 269.076 74.7176 270.212 73.6475 269.28Z" fill="url(#paint12_radial_84_554)"/>
<path d="M76.9828 259.778C78.2132 262.472 76.9183 265.246 75.7058 266.416C75.5389 266.576 74.8336 267.2 74.6734 267.696C74.6734 267.696 71.9101 264.234 71.0869 262.198C70.92 261.788 70.7688 261.364 70.7487 260.928C70.7332 260.6 70.791 260.21 71.0001 259.932C71.2582 259.59 76.836 259.49 76.836 259.49C76.836 259.494 76.9828 259.778 76.9828 259.778Z" fill="url(#paint13_radial_84_554)"/>
<path d="M52.3158 259.778C51.0876 262.472 52.3803 265.246 53.5929 266.416C53.7597 266.576 54.465 267.2 54.6252 267.696C54.6252 267.696 57.3885 264.234 58.2117 262.198C58.3786 261.788 58.5299 261.364 58.5499 260.928C58.5655 260.6 58.5076 260.21 58.2985 259.932C58.0404 259.59 57.74 259.682 57.304 259.682C56.4696 259.682 52.8208 259.49 52.5383 259.49C52.5383 259.494 52.3158 259.778 52.3158 259.778Z" fill="url(#paint14_radial_84_554)"/>
<path d="M64.6546 272.566V270.108L56.3825 269.52L55.6305 270.352C55.6305 270.352 57.4104 272.566 62.0648 272.566H64.6546Z" fill="url(#paint15_radial_84_554)"/>
<path d="M55.6507 269.28C56.89 267.588 54.1422 266.958 54.1422 266.958L54.14 266.96C54.6184 267.494 54.8342 267.96 54.5538 268.418C54.2045 268.992 53.1611 269.076 53.1611 269.076C53.1611 269.076 54.5805 270.212 55.6507 269.28Z" fill="url(#paint16_radial_84_554)"/>
<path d="M72.5554 260.768H56.7365C55.03 260.768 53.635 262.104 53.635 263.738C53.635 265.372 55.03 266.708 56.7365 266.708H72.5576C74.2641 266.708 75.6591 265.372 75.6591 263.738C75.6591 262.104 74.2619 260.768 72.5554 260.768Z" fill="#E59600"/>
<path d="M64.646 250.523C59.6089 250.523 54.9433 255.365 54.9433 262.336C54.9433 269.268 59.7513 272.694 64.646 272.694C69.5408 272.694 74.3487 269.268 74.3487 262.336C74.3487 255.367 69.6831 250.523 64.646 250.523Z" fill="#FFCA28"/>
<path d="M65.7629 265.352C65.733 265.341 65.7016 265.333 65.6695 265.33H63.6226C63.5914 265.334 63.5603 265.34 63.5291 265.352C63.3445 265.42 63.2421 265.592 63.3289 265.776C63.4179 265.96 63.825 266.476 64.646 266.476C65.467 266.476 65.8742 265.96 65.9632 265.776C66.0522 265.592 65.9498 265.42 65.7629 265.352Z" fill="#E59600"/>
<path d="M67.0823 267.436C66.1612 267.928 63.1375 267.928 62.2164 267.436C61.6869 267.152 61.1463 267.586 61.3665 268.018C61.5823 268.442 63.231 269.43 64.6571 269.43C66.0833 269.43 67.7097 268.444 67.9277 268.018C68.1458 267.586 67.6118 267.154 67.0823 267.436Z" fill="#795548"/>
<path d="M59.9515 264.249C60.7281 264.249 61.3577 263.663 61.3577 262.939C61.3577 262.216 60.7281 261.629 59.9515 261.629C59.175 261.629 58.5454 262.216 58.5454 262.939C58.5454 263.663 59.175 264.249 59.9515 264.249Z" fill="#404040"/>
<path d="M69.3405 264.249C70.1171 264.249 70.7467 263.663 70.7467 262.939C70.7467 262.216 70.1171 261.629 69.3405 261.629C68.564 261.629 67.9344 262.216 67.9344 262.939C67.9344 263.663 68.564 264.249 69.3405 264.249Z" fill="#404040"/>
<path d="M62.0405 260.587C61.7735 260.269 61.1528 259.805 59.9513 259.805C58.7499 259.805 58.1291 260.269 57.8621 260.587C57.7442 260.729 57.7732 260.891 57.8555 260.989C57.9311 261.081 58.1558 261.165 58.405 261.089C58.6542 261.013 59.1392 260.787 59.9513 260.783C60.7634 260.789 61.2506 261.013 61.4976 261.089C61.7446 261.165 61.9715 261.081 62.0472 260.989C62.1295 260.891 62.1584 260.729 62.0405 260.587ZM71.4317 260.587C71.1647 260.269 70.544 259.805 69.3425 259.805C68.1411 259.805 67.5204 260.269 67.2534 260.587C67.1355 260.729 67.1644 260.891 67.2467 260.989C67.3224 261.081 67.5471 261.165 67.7963 261.089C68.0454 261.013 68.5305 260.787 69.3425 260.783C70.1546 260.789 70.6419 261.013 70.8888 261.089C71.138 261.165 71.3627 261.081 71.4384 260.989C71.5185 260.891 71.5496 260.729 71.4317 260.587Z" fill="#6D4C41"/>
<path d="M76.2462 254.175C75.5387 253.213 73.9568 251.925 72.5351 251.841C72.3082 250.613 70.8442 249.573 69.4292 249.169C65.6002 248.079 63.1061 249.301 61.7689 249.957C61.4908 250.093 59.6931 250.989 58.436 250.347C57.6484 249.945 57.664 248.855 57.664 248.855C57.664 248.855 55.1966 249.699 56.0398 252.055C55.1922 252.087 54.0797 252.407 53.4924 253.477C52.7915 254.751 53.0407 255.817 53.2432 256.327C52.5134 256.883 51.5968 258.069 52.2264 259.607C52.7003 260.765 54.5914 261.297 54.5914 261.297C54.458 263.381 54.8896 264.666 55.1187 265.184C55.1588 265.274 55.3034 265.266 55.3279 265.172C55.6127 264.14 56.5916 260.541 56.4937 259.913C56.4937 259.913 59.7777 259.327 62.9103 257.255C63.5488 256.833 64.2385 256.473 64.9728 256.211C68.9063 254.803 69.7295 257.205 69.7295 257.205C69.7295 257.205 72.455 256.735 73.2782 260.139C73.5875 261.415 73.7966 263.457 73.9724 264.886C73.9858 264.986 74.137 265.008 74.1815 264.914C74.4574 264.348 75.007 263.221 75.1382 262.075C75.185 261.671 76.3953 261.137 76.9137 259.405C77.6123 257.091 76.7557 254.869 76.2462 254.175Z" fill="#543930"/>
<path d="M75.1296 262.083C75.1763 261.679 76.3867 261.145 76.9051 259.413C76.9607 259.229 77.0074 259.041 77.0497 258.853C77.4724 256.747 76.7137 254.815 76.242 254.175C75.5879 253.287 74.1862 252.121 72.8558 251.883C72.7401 251.869 72.6266 251.857 72.5198 251.851C72.5198 251.851 72.6155 252.409 72.3641 252.855C72.0392 253.433 71.3784 253.569 71.3784 253.569C74.847 256.687 74.6001 259.295 75.1296 262.083Z" fill="url(#paint17_radial_84_554)"/>
<path d="M62.6057 249.563C62.2898 249.701 62.0095 249.839 61.767 249.957C61.4888 250.093 59.6911 250.989 58.4341 250.347C57.6598 249.951 57.6598 248.895 57.6621 248.857C57.3061 249.265 56.2292 252.183 59.3774 252.377C60.7346 252.461 61.5734 251.397 62.0673 250.495C62.2475 250.169 62.5301 249.691 62.6057 249.563Z" fill="url(#paint18_radial_84_554)"/>
<path d="M69.0331 249.063C71.1512 249.579 72.1857 250.547 72.5306 251.843C72.6329 252.223 72.7531 255.767 65.2263 251.739C62.4274 250.241 63.1905 249.303 63.5198 249.197C64.7991 248.779 66.6591 248.485 69.0331 249.063Z" fill="url(#paint19_radial_84_554)"/>
<path d="M57.6532 248.857C57.6487 248.859 57.6443 248.861 57.6354 248.863H57.6332C57.3639 248.965 55.2459 249.845 56.0379 252.051L58.2917 252.377C56.2982 250.563 57.6621 248.853 57.6621 248.853L57.6532 248.857Z" fill="url(#paint20_radial_84_554)"/>
<path d="M57.4308 252.255L56.038 252.053C55.9846 252.053 55.7977 252.069 55.6976 252.081C54.9145 252.179 53.9889 252.543 53.4905 253.477C52.9521 254.481 52.9677 255.344 53.1123 255.92C53.1546 256.114 53.2413 256.33 53.2413 256.33C53.2413 256.33 53.9311 255.742 55.5708 255.704L57.4308 252.255Z" fill="url(#paint21_radial_84_554)"/>
<path d="M53.1743 256.377C52.489 256.925 51.5635 258.145 52.2465 259.658C52.7604 260.8 54.5893 261.296 54.5893 261.296C54.5893 261.302 54.9542 261.398 55.1433 261.398L55.5705 255.699C54.6939 255.699 53.8529 255.935 53.3078 256.275C53.3122 256.287 53.172 256.369 53.1743 256.377Z" fill="url(#paint22_radial_84_554)"/>
<path d="M101.852 264.466C99.8984 264.466 98.7969 263.255 98.6797 261.637L98.6719 261.528H100.078L100.086 261.606C100.172 262.458 100.727 263.169 101.844 263.169C103.094 263.169 103.766 262.427 103.766 261.052V252.927H105.172V261.067C105.172 263.2 103.938 264.466 101.852 264.466ZM107.953 264.2V252.434H109.312V257.044H109.438C109.859 256.153 110.648 255.63 111.891 255.63C113.781 255.63 114.836 256.747 114.836 258.747V264.2H113.477V259.075C113.477 257.559 112.852 256.833 111.508 256.833C110.164 256.833 109.312 257.739 109.312 259.216V264.2H107.953ZM120.758 264.348C118.359 264.348 116.875 262.692 116.875 259.997V259.981C116.875 257.278 118.359 255.63 120.758 255.63C123.156 255.63 124.641 257.278 124.641 259.981V259.997C124.641 262.692 123.156 264.348 120.758 264.348ZM120.758 263.145C122.352 263.145 123.25 261.981 123.25 259.997V259.981C123.25 257.989 122.352 256.833 120.758 256.833C119.164 256.833 118.266 257.989 118.266 259.981V259.997C118.266 261.981 119.164 263.145 120.758 263.145ZM126.75 264.2V255.778H128.109V257.044H128.234C128.656 256.153 129.445 255.63 130.688 255.63C132.578 255.63 133.633 256.747 133.633 258.747V264.2H132.273V259.075C132.273 257.559 131.648 256.833 130.305 256.833C128.961 256.833 128.109 257.739 128.109 259.216V264.2H126.75ZM136.094 264.2V255.778H137.453V257.044H137.578C138 256.153 138.789 255.63 140.031 255.63C141.922 255.63 142.977 256.747 142.977 258.747V264.2H141.617V259.075C141.617 257.559 140.992 256.833 139.648 256.833C138.305 256.833 137.453 257.739 137.453 259.216V264.2H136.094ZM145.844 267.153C145.664 267.153 145.43 267.137 145.242 267.106V265.989C145.406 266.02 145.617 266.028 145.805 266.028C146.578 266.028 147.047 265.677 147.352 264.708L147.508 264.208L144.391 255.778H145.844L148.156 262.708H148.281L150.586 255.778H152.016L148.727 264.716C148.031 266.606 147.336 267.153 145.844 267.153Z" fill="black"/>
<rect x="231" y="246.2" width="36" height="24" rx="12" fill="#FC9D45"/>
<path d="M244.932 263.399C243.385 263.399 241.75 262.309 241.75 259.128V259.116C241.75 256.233 242.951 254.546 245.002 254.546C246.42 254.546 247.475 255.378 247.762 256.626L247.779 256.702H246.719L246.695 256.637C246.438 255.928 245.846 255.489 244.99 255.489C243.455 255.489 242.828 256.989 242.764 258.753C242.758 258.817 242.758 258.887 242.758 258.952H242.869C243.18 258.26 243.977 257.645 245.119 257.645C246.707 257.645 247.891 258.852 247.891 260.475V260.487C247.891 262.175 246.637 263.399 244.932 263.399ZM243.01 260.475C243.01 261.589 243.848 262.468 244.92 262.468C245.98 262.468 246.83 261.606 246.83 260.51V260.499C246.83 259.374 246.033 258.565 244.938 258.565C243.842 258.565 243.01 259.368 243.01 260.469V260.475ZM252.414 263.399C250.545 263.399 249.432 261.694 249.432 258.975V258.964C249.432 256.245 250.545 254.546 252.414 254.546C254.283 254.546 255.408 256.245 255.408 258.964V258.975C255.408 261.694 254.283 263.399 252.414 263.399ZM252.414 262.479C253.627 262.479 254.348 261.132 254.348 258.975V258.964C254.348 256.807 253.627 255.471 252.414 255.471C251.201 255.471 250.492 256.807 250.492 258.964V258.975C250.492 261.132 251.201 262.479 252.414 262.479Z" fill="white"/>
<path d="M0 305.6H296V364C296 373.941 287.941 382 278 382H18C8.05887 382 0 373.941 0 364V305.6Z" fill="white"/>
<path d="M25.7207 341.799C24.1445 341.799 23.0195 340.786 22.8965 339.432L22.8906 339.368H23.9043L23.9102 339.415C24.0098 340.223 24.7422 340.868 25.7324 340.868C26.8574 340.868 27.6309 340.065 27.6309 338.922V338.911C27.6309 337.786 26.8457 336.983 25.75 336.983C25.1875 336.983 24.707 337.153 24.3438 337.499C24.1973 337.639 24.0625 337.803 23.957 338.002H23.043L23.4883 333.145H28.1934V334.088H24.3203L24.0332 336.948H24.127C24.502 336.379 25.1641 336.069 25.9316 336.069C27.5195 336.069 28.6621 337.258 28.6621 338.893V338.905C28.6621 340.61 27.4375 341.799 25.7207 341.799Z" fill="#0B0B0B"/>
<path d="M68.772 324.933C66.6852 324.327 61.7758 324.492 60.5489 325.926C57.3577 325.981 53.6144 328.574 53.1231 331.995C52.6374 335.379 53.7196 336.952 54.1048 339.498C54.5415 342.382 56.3451 343.304 57.7873 343.69C59.8622 346.154 62.0677 346.049 65.7707 346.049C73.0019 346.049 76.4462 341.7 76.7508 334.312C76.9343 329.843 74.0184 326.459 68.772 324.933Z" fill="#E95F28"/>
<path d="M72.9073 334.627C72.208 333.756 71.3117 333.055 69.3483 332.807C70.0848 333.11 70.7904 334.158 70.8822 334.737C70.9739 335.317 71.0665 335.785 70.4835 335.206C68.1482 332.886 65.6049 333.799 63.0838 332.381C61.3229 331.391 60.7873 330.296 60.7873 330.296C60.7873 330.296 60.5722 331.758 57.9031 333.247C57.1294 333.678 56.2062 334.64 55.6936 336.06C55.3258 337.08 55.4397 337.991 55.4397 339.547C55.4397 344.087 59.6023 347.904 64.7371 347.904C69.872 347.904 74.0346 344.054 74.0346 339.547C74.0346 336.723 73.7055 335.621 72.9073 334.627Z" fill="#FFDC5D"/>
<path d="M64.7287 345.498C62.8721 345.498 61.9006 344.673 61.7962 344.579C61.6468 344.446 61.5621 344.266 61.5606 344.077C61.5591 343.889 61.641 343.707 61.7883 343.573C61.9356 343.439 62.1362 343.363 62.346 343.361C62.5557 343.36 62.7575 343.434 62.9069 343.566C62.9472 343.599 63.5445 344.076 64.7287 344.076C65.9303 344.076 66.5268 343.585 66.5521 343.565C66.704 343.437 66.9056 343.367 67.1137 343.371C67.3218 343.375 67.52 343.452 67.6659 343.585C67.8107 343.718 67.8913 343.897 67.8905 344.083C67.8896 344.269 67.8072 344.447 67.6612 344.579C67.5568 344.673 66.5854 345.498 64.7287 345.498ZM65.5198 341.943H63.9376C63.7278 341.943 63.5266 341.868 63.3783 341.734C63.2299 341.601 63.1466 341.42 63.1466 341.231C63.1466 341.043 63.2299 340.862 63.3783 340.729C63.5266 340.595 63.7278 340.52 63.9376 340.52H65.5198C65.7296 340.52 65.9308 340.595 66.0792 340.729C66.2275 340.862 66.3108 341.043 66.3108 341.231C66.3108 341.42 66.2275 341.601 66.0792 341.734C65.9308 341.868 65.7296 341.943 65.5198 341.943Z" fill="#C1694F"/>
<path d="M60.7734 339.098C60.5636 339.098 60.3624 339.023 60.214 338.89C60.0656 338.756 59.9823 338.575 59.9823 338.387V336.965C59.9823 336.776 60.0656 336.595 60.214 336.462C60.3624 336.328 60.5636 336.253 60.7734 336.253C60.9832 336.253 61.1844 336.328 61.3327 336.462C61.4811 336.595 61.5644 336.776 61.5644 336.965V338.387C61.5644 338.575 61.4811 338.756 61.3327 338.89C61.1844 339.023 60.9832 339.098 60.7734 339.098ZM68.6841 339.098C68.4743 339.098 68.273 339.023 68.1247 338.89C67.9763 338.756 67.893 338.575 67.893 338.387V336.965C67.893 336.776 67.9763 336.595 68.1247 336.462C68.273 336.328 68.4743 336.253 68.6841 336.253C68.8939 336.253 69.0951 336.328 69.2434 336.462C69.3918 336.595 69.4751 336.776 69.4751 336.965V338.387C69.4751 338.575 69.3918 338.756 69.2434 338.89C69.0951 339.023 68.8939 339.098 68.6841 339.098Z" fill="#662113"/>
<path d="M99.4375 340.6V329.327H100.844V339.334H106.281V340.6H99.4375ZM110.672 340.749C109.07 340.749 107.859 339.78 107.859 338.249V338.233C107.859 336.733 108.969 335.866 110.93 335.749L113.344 335.6V334.834C113.344 333.795 112.711 333.233 111.453 333.233C110.445 333.233 109.781 333.608 109.562 334.264L109.555 334.288H108.195L108.203 334.241C108.422 332.92 109.703 332.03 111.5 332.03C113.555 332.03 114.703 333.084 114.703 334.834V340.6H113.344V339.358H113.219C112.688 340.256 111.805 340.749 110.672 340.749ZM109.25 338.217C109.25 339.069 109.977 339.569 110.953 339.569C112.336 339.569 113.344 338.663 113.344 337.459V336.694L111.094 336.834C109.812 336.913 109.25 337.366 109.25 338.202V338.217ZM117.188 340.6V332.178H118.547V333.444H118.672C119.094 332.553 119.883 332.03 121.125 332.03C123.016 332.03 124.07 333.147 124.07 335.147V340.6H122.711V335.475C122.711 333.959 122.086 333.233 120.742 333.233C119.398 333.233 118.547 334.139 118.547 335.616V340.6H117.188ZM129.641 340.749C127.508 340.749 126.109 339.022 126.109 336.397V336.381C126.109 333.741 127.5 332.03 129.641 332.03C130.797 332.03 131.805 332.608 132.266 333.506H132.391V328.834H133.75V340.6H132.391V339.256H132.266C131.75 340.194 130.812 340.749 129.641 340.749ZM129.953 339.545C131.484 339.545 132.422 338.342 132.422 336.397V336.381C132.422 334.436 131.484 333.233 129.953 333.233C128.414 333.233 127.5 334.42 127.5 336.381V336.397C127.5 338.358 128.414 339.545 129.953 339.545ZM139.82 340.749C137.422 340.749 135.938 339.092 135.938 336.397V336.381C135.938 333.678 137.422 332.03 139.82 332.03C142.219 332.03 143.703 333.678 143.703 336.381V336.397C143.703 339.092 142.219 340.749 139.82 340.749ZM139.82 339.545C141.414 339.545 142.312 338.381 142.312 336.397V336.381C142.312 334.389 141.414 333.233 139.82 333.233C138.227 333.233 137.328 334.389 137.328 336.381V336.397C137.328 338.381 138.227 339.545 139.82 339.545ZM145.812 340.6V332.178H147.172V333.444H147.297C147.719 332.553 148.508 332.03 149.75 332.03C151.641 332.03 152.695 333.147 152.695 335.147V340.6H151.336V335.475C151.336 333.959 150.711 333.233 149.367 333.233C148.023 333.233 147.172 334.139 147.172 335.616V340.6H145.812Z" fill="black"/>
<rect x="231" y="322.6" width="36" height="24" rx="12" fill="#FC9D45"/>
<path d="M241.943 339.6V338.874L244.803 335.78C245.881 334.614 246.197 334.174 246.197 333.436V333.424C246.197 332.534 245.594 331.866 244.598 331.866C243.584 331.866 242.91 332.528 242.91 333.524L242.904 333.536L241.896 333.53L241.885 333.524C241.891 332.024 243.051 330.946 244.668 330.946C246.145 330.946 247.275 331.948 247.275 333.313V333.325C247.275 334.292 246.859 334.995 245.33 336.571L243.408 338.557V338.651H247.416V339.6H241.943ZM252.016 339.799C250.146 339.799 249.033 338.094 249.033 335.375V335.364C249.033 332.645 250.146 330.946 252.016 330.946C253.885 330.946 255.01 332.645 255.01 335.364V335.375C255.01 338.094 253.885 339.799 252.016 339.799ZM252.016 338.879C253.229 338.879 253.949 337.532 253.949 335.375V335.364C253.949 333.208 253.229 331.872 252.016 331.872C250.803 331.872 250.094 333.208 250.094 335.364V335.375C250.094 337.532 250.803 338.879 252.016 338.879Z" fill="white"/>
<defs>
<radialGradient id="paint0_radial_84_554" cx="0" cy="0" r="1" gradientUnits="userSpaceOnUse" gradientTransform="translate(54.7232 37.3537) rotate(-166.307) scale(1.82326 1.14202)">
<stop offset="0.553" stop-color="#6D4C41"/>
<stop offset="1" stop-color="#6D4C41" stop-opacity="0"/>
</radialGradient>
<radialGradient id="paint1_radial_84_554" cx="0" cy="0" r="1" gradientUnits="userSpaceOnUse" gradientTransform="translate(57.4679 33.0358) rotate(-176.762) scale(4.83004 7.00059)">
<stop offset="0.615" stop-color="#6D4C41" stop-opacity="0"/>
<stop offset="0.647" stop-color="#6D4C41" stop-opacity="0.081"/>
<stop offset="1" stop-color="#6D4C41"/>
</radialGradient>
<radialGradient id="paint2_radial_84_554" cx="0" cy="0" r="1" gradientUnits="userSpaceOnUse" gradientTransform="translate(75.2765 37.3536) rotate(-13.6927) scale(1.82326 1.14202)">
<stop offset="0.553" stop-color="#6D4C41"/>
<stop offset="1" stop-color="#6D4C41" stop-opacity="0"/>
</radialGradient>
<radialGradient id="paint3_radial_84_554" cx="0" cy="0" r="1" gradientUnits="userSpaceOnUse" gradientTransform="translate(72.5323 33.036) rotate(-3.23755) scale(4.83004 7.00059)">
<stop offset="0.615" stop-color="#6D4C41" stop-opacity="0"/>
<stop offset="0.647" stop-color="#6D4C41" stop-opacity="0.081"/>
<stop offset="1" stop-color="#6D4C41"/>
</radialGradient>
<radialGradient id="paint4_radial_84_554" cx="0" cy="0" r="1" gradientUnits="userSpaceOnUse" gradientTransform="translate(64.9337 30.2045) rotate(-90) scale(11.2198 17.3649)">
<stop offset="0.794" stop-color="#6D4C41" stop-opacity="0"/>
<stop offset="1" stop-color="#6D4C41"/>
</radialGradient>
<radialGradient id="paint5_radial_84_554" cx="0" cy="0" r="1" gradientUnits="userSpaceOnUse" gradientTransform="translate(69.6774 28.0558) rotate(70.2201) scale(8.39857 6.77979)">
<stop offset="0.699" stop-color="#6D4C41" stop-opacity="0"/>
<stop offset="1" stop-color="#6D4C41"/>
</radialGradient>
<radialGradient id="paint6_radial_84_554" cx="0" cy="0" r="1" gradientUnits="userSpaceOnUse" gradientTransform="translate(60.6696 19.0001) rotate(25.7367) scale(2.37023 2.6395)">
<stop offset="0.58" stop-color="#6D4C41"/>
<stop offset="1" stop-color="#6D4C41" stop-opacity="0"/>
</radialGradient>
<radialGradient id="paint7_radial_84_554" cx="0" cy="0" r="1" gradientUnits="userSpaceOnUse" gradientTransform="translate(66.0839 22.9553) rotate(-159.291) scale(7.46679 3.88429)">
<stop offset="0.699" stop-color="#6D4C41" stop-opacity="0"/>
<stop offset="1" stop-color="#6D4C41"/>
</radialGradient>
<radialGradient id="paint8_radial_84_554" cx="0" cy="0" r="1" gradientUnits="userSpaceOnUse" gradientTransform="translate(59.6968 20.9867) scale(2.22377 2.4454)">
<stop offset="0.702" stop-color="#6D4C41" stop-opacity="0"/>
<stop offset="1" stop-color="#6D4C41"/>
</radialGradient>
<radialGradient id="paint9_radial_84_554" cx="0" cy="0" r="1" gradientUnits="userSpaceOnUse" gradientTransform="translate(59.3906 24.5155) rotate(-166.405) scale(4.14359 3.53149)">
<stop offset="0.66" stop-color="#6D4C41" stop-opacity="0"/>
<stop offset="1" stop-color="#6D4C41"/>
</radialGradient>
<radialGradient id="paint10_radial_84_554" cx="0" cy="0" r="1" gradientUnits="userSpaceOnUse" gradientTransform="translate(58.4023 28.135) rotate(7.05024) scale(4.3709 5.54085)">
<stop offset="0.598" stop-color="#6D4C41" stop-opacity="0"/>
<stop offset="1" stop-color="#6D4C41"/>
</radialGradient>
<radialGradient id="paint11_radial_84_554" cx="0" cy="0" r="1" gradientUnits="userSpaceOnUse" gradientTransform="translate(68.867 269.017) scale(6.779 2.99331)">
<stop offset="0.728" stop-color="#6D4C41" stop-opacity="0"/>
<stop offset="1" stop-color="#6D4C41"/>
</radialGradient>
<radialGradient id="paint12_radial_84_554" cx="0" cy="0" r="1" gradientUnits="userSpaceOnUse" gradientTransform="translate(75.5437 268.11) rotate(157.187) scale(1.96835 1.35952)">
<stop offset="0.663" stop-color="#6D4C41"/>
<stop offset="1" stop-color="#6D4C41" stop-opacity="0"/>
</radialGradient>
<radialGradient id="paint13_radial_84_554" cx="0" cy="0" r="1" gradientUnits="userSpaceOnUse" gradientTransform="translate(70.3525 263.016) rotate(-94.7572) scale(7.9152 7.3288)">
<stop offset="0.725" stop-color="#6D4C41" stop-opacity="0"/>
<stop offset="1" stop-color="#6D4C41"/>
</radialGradient>
<radialGradient id="paint14_radial_84_554" cx="0" cy="0" r="1" gradientUnits="userSpaceOnUse" gradientTransform="translate(58.946 263.016) rotate(-85.2428) scale(7.9152 7.3288)">
<stop offset="0.725" stop-color="#6D4C41" stop-opacity="0"/>
<stop offset="1" stop-color="#6D4C41"/>
</radialGradient>
<radialGradient id="paint15_radial_84_554" cx="0" cy="0" r="1" gradientUnits="userSpaceOnUse" gradientTransform="translate(60.4309 269.017) rotate(180) scale(6.779 2.99331)">
<stop offset="0.728" stop-color="#6D4C41" stop-opacity="0"/>
<stop offset="1" stop-color="#6D4C41"/>
</radialGradient>
<radialGradient id="paint16_radial_84_554" cx="0" cy="0" r="1" gradientUnits="userSpaceOnUse" gradientTransform="translate(53.7545 268.11) rotate(22.8133) scale(1.96835 1.35952)">
<stop offset="0.663" stop-color="#6D4C41"/>
<stop offset="1" stop-color="#6D4C41" stop-opacity="0"/>
</radialGradient>
<radialGradient id="paint17_radial_84_554" cx="0" cy="0" r="1" gradientUnits="userSpaceOnUse" gradientTransform="translate(69.8615 258.843) rotate(70.2201) scale(9.37536 7.5683)">
<stop offset="0.699" stop-color="#6D4C41" stop-opacity="0"/>
<stop offset="1" stop-color="#6D4C41"/>
</radialGradient>
<radialGradient id="paint18_radial_84_554" cx="0" cy="0" r="1" gradientUnits="userSpaceOnUse" gradientTransform="translate(59.8061 248.734) rotate(25.7367) scale(2.6458 2.94638)">
<stop offset="0.58" stop-color="#6D4C41"/>
<stop offset="1" stop-color="#6D4C41" stop-opacity="0"/>
</radialGradient>
<radialGradient id="paint19_radial_84_554" cx="0" cy="0" r="1" gradientUnits="userSpaceOnUse" gradientTransform="translate(65.8499 253.149) rotate(-159.291) scale(8.33517 4.33603)">
<stop offset="0.699" stop-color="#6D4C41" stop-opacity="0"/>
<stop offset="1" stop-color="#6D4C41"/>
</radialGradient>
<radialGradient id="paint20_radial_84_554" cx="0" cy="0" r="1" gradientUnits="userSpaceOnUse" gradientTransform="translate(58.7205 250.951) scale(2.4823 2.7297)">
<stop offset="0.702" stop-color="#6D4C41" stop-opacity="0"/>
<stop offset="1" stop-color="#6D4C41"/>
</radialGradient>
<radialGradient id="paint21_radial_84_554" cx="0" cy="0" r="1" gradientUnits="userSpaceOnUse" gradientTransform="translate(58.3789 254.89) rotate(-166.405) scale(4.62548 3.9422)">
<stop offset="0.66" stop-color="#6D4C41" stop-opacity="0"/>
<stop offset="1" stop-color="#6D4C41"/>
</radialGradient>
<radialGradient id="paint22_radial_84_554" cx="0" cy="0" r="1" gradientUnits="userSpaceOnUse" gradientTransform="translate(57.2748 258.931) rotate(7.05024) scale(4.87928 6.18531)">
<stop offset="0.598" stop-color="#6D4C41" stop-opacity="0"/>
<stop offset="1" stop-color="#6D4C41"/>
</radialGradient>
</defs>
</svg>
