<svg width="51" height="41" viewBox="0 0 51 41" fill="none" xmlns="http://www.w3.org/2000/svg">
<path d="M35 2.65046H32V1.64347C32 1.3764 31.8946 1.12026 31.7071 0.931416C31.5196 0.742568 31.2652 0.636475 31 0.636475C30.7348 0.636475 30.4804 0.742568 30.2929 0.931416C30.1054 1.12026 30 1.3764 30 1.64347V2.65046H20V1.64347C20 1.3764 19.8946 1.12026 19.7071 0.931416C19.5196 0.742568 19.2652 0.636475 19 0.636475C18.7348 0.636475 18.4804 0.742568 18.2929 0.931416C18.1054 1.12026 18 1.3764 18 1.64347V2.65046H15C14.4696 2.65046 13.9609 2.86265 13.5858 3.24034C13.2107 3.61804 13 4.1303 13 4.66445V24.8043C13 25.3384 13.2107 25.8507 13.5858 26.2284C13.9609 26.6061 14.4696 26.8183 15 26.8183H35C35.5304 26.8183 36.0391 26.6061 36.4142 26.2284C36.7893 25.8507 37 25.3384 37 24.8043V4.66445C37 4.1303 36.7893 3.61804 36.4142 3.24034C36.0391 2.86265 35.5304 2.65046 35 2.65046ZM23 21.7833C23 22.0504 22.8946 22.3065 22.7071 22.4954C22.5196 22.6842 22.2652 22.7903 22 22.7903C21.7348 22.7903 21.4804 22.6842 21.2929 22.4954C21.1054 22.3065 21 22.0504 21 21.7833V15.3562L20.4475 15.6356C20.2101 15.7552 19.9353 15.7748 19.6836 15.6903C19.4318 15.6058 19.2237 15.424 19.105 15.185C18.9863 14.946 18.9668 14.6693 19.0507 14.4157C19.1346 14.1622 19.3151 13.9526 19.5525 13.8331L21.5525 12.8261C21.705 12.7493 21.8745 12.713 22.0449 12.7207C22.2153 12.7284 22.3808 12.7799 22.5259 12.8702C22.671 12.9605 22.7907 13.0867 22.8736 13.2367C22.9566 13.3867 23.0001 13.5556 23 13.7274V21.7833ZM30 20.7763C30.2652 20.7763 30.5196 20.8824 30.7071 21.0713C30.8946 21.2601 31 21.5163 31 21.7833C31 22.0504 30.8946 22.3065 30.7071 22.4954C30.5196 22.6842 30.2652 22.7903 30 22.7903H26C25.8143 22.7903 25.6322 22.7382 25.4743 22.6399C25.3163 22.5416 25.1886 22.4009 25.1056 22.2337C25.0225 22.0664 24.9874 21.8792 25.004 21.6929C25.0207 21.5066 25.0886 21.3287 25.2 21.1791L28.7975 16.3493C28.8793 16.2396 28.938 16.1143 28.97 15.9809C29.002 15.8475 29.0066 15.709 28.9835 15.5738C28.9604 15.4386 28.9101 15.3095 28.8357 15.1946C28.7612 15.0797 28.6643 14.9813 28.5508 14.9054C28.4372 14.8296 28.3095 14.7779 28.1754 14.7535C28.0413 14.7292 27.9037 14.7327 27.771 14.7638C27.6383 14.795 27.5134 14.8531 27.4038 14.9346C27.2942 15.0161 27.2023 15.1193 27.1338 15.2379C27.07 15.356 26.9834 15.4602 26.8791 15.5441C26.7748 15.628 26.6548 15.6901 26.5263 15.7266C26.3977 15.763 26.2633 15.7732 26.1308 15.7565C25.9983 15.7398 25.8704 15.6966 25.7548 15.6293C25.6391 15.5621 25.5381 15.4722 25.4575 15.3649C25.3769 15.2577 25.3185 15.1353 25.2857 15.0049C25.2528 14.8746 25.2462 14.739 25.2663 14.606C25.2864 14.4731 25.3327 14.3455 25.4025 14.2309C25.7328 13.6552 26.2425 13.2054 26.8525 12.9511C27.4625 12.6968 28.1388 12.6523 28.7765 12.8244C29.4142 12.9964 29.9778 13.3756 30.3798 13.903C30.7818 14.4303 30.9998 15.0765 31 15.7414C31.0021 16.3981 30.7895 17.0373 30.395 17.5603L28 20.7763H30ZM15 8.69242V4.66445H18V5.67144C18 5.93851 18.1054 6.19464 18.2929 6.38349C18.4804 6.57234 18.7348 6.67843 19 6.67843C19.2652 6.67843 19.5196 6.57234 19.7071 6.38349C19.8946 6.19464 20 5.93851 20 5.67144V4.66445H30V5.67144C30 5.93851 30.1054 6.19464 30.2929 6.38349C30.4804 6.57234 30.7348 6.67843 31 6.67843C31.2652 6.67843 31.5196 6.57234 31.7071 6.38349C31.8946 6.19464 32 5.93851 32 5.67144V4.66445H35V8.69242H15Z" fill="#FCBE45"/>
<path d="M4.14648 39.6538C1.84961 39.6538 0.414062 37.9546 0.414062 35.2358V35.2241C0.414062 32.4995 1.84375 30.8003 4.14062 30.8003C5.92188 30.8003 7.31055 31.9194 7.5625 33.5425L7.55664 33.5542H6.49609L6.49023 33.5425C6.20898 32.4585 5.30664 31.7729 4.14062 31.7729C2.51758 31.7729 1.49805 33.1089 1.49805 35.2241V35.2358C1.49805 37.3511 2.51758 38.6812 4.14648 38.6812C5.32422 38.6812 6.2207 38.0776 6.48438 37.105L6.49609 37.0933H7.5625V37.105C7.28125 38.6519 5.94531 39.6538 4.14648 39.6538ZM10.9375 39.5659C9.73633 39.5659 8.82812 38.8394 8.82812 37.6909V37.6792C8.82812 36.5542 9.66016 35.9038 11.1309 35.8159L12.9414 35.7046V35.1304C12.9414 34.3511 12.4668 33.9292 11.5234 33.9292C10.7676 33.9292 10.2695 34.2104 10.1055 34.7026L10.0996 34.7202H9.08008L9.08594 34.6851C9.25 33.6948 10.2109 33.0269 11.5586 33.0269C13.0996 33.0269 13.9609 33.8179 13.9609 35.1304V39.4546H12.9414V38.5229H12.8477C12.4492 39.1968 11.7871 39.5659 10.9375 39.5659ZM9.87109 37.6675C9.87109 38.3062 10.416 38.6812 11.1484 38.6812C12.1855 38.6812 12.9414 38.0015 12.9414 37.0991V36.5249L11.2539 36.6304C10.293 36.689 9.87109 37.0288 9.87109 37.6558V37.6675ZM15.8828 39.4546V30.6304H16.9023V39.4546H15.8828ZM21.4375 39.5659C19.6328 39.5659 18.543 38.3003 18.543 36.3198V36.314C18.543 34.3628 19.6562 33.0269 21.373 33.0269C23.0898 33.0269 24.1328 34.3042 24.1328 36.1909V36.5894H19.5859C19.6152 37.896 20.3359 38.6577 21.4609 38.6577C22.3164 38.6577 22.8438 38.2534 23.0137 37.8726L23.0371 37.8198H24.0566L24.0449 37.8667C23.8281 38.7222 22.9258 39.5659 21.4375 39.5659ZM21.3672 33.9351C20.4297 33.9351 19.7148 34.5737 19.6035 35.7749H23.0957C22.9902 34.5269 22.2988 33.9351 21.3672 33.9351ZM25.7148 39.4546V33.1382H26.7344V34.0874H26.8281C27.1445 33.4194 27.7363 33.0269 28.668 33.0269C30.0859 33.0269 30.877 33.8647 30.877 35.3647V39.4546H29.8574V35.6108C29.8574 34.4741 29.3887 33.9292 28.3809 33.9292C27.373 33.9292 26.7344 34.6089 26.7344 35.7163V39.4546H25.7148ZM35.0547 39.5659C33.4551 39.5659 32.4062 38.271 32.4062 36.3022V36.2905C32.4062 34.3101 33.4492 33.0269 35.0547 33.0269C35.9219 33.0269 36.6777 33.4604 37.0234 34.1343H37.1172V30.6304H38.1367V39.4546H37.1172V38.4468H37.0234C36.6367 39.1499 35.9336 39.5659 35.0547 39.5659ZM35.2891 38.6636C36.4375 38.6636 37.1406 37.7612 37.1406 36.3022V36.2905C37.1406 34.8315 36.4375 33.9292 35.2891 33.9292C34.1348 33.9292 33.4492 34.8198 33.4492 36.2905V36.3022C33.4492 37.7729 34.1348 38.6636 35.2891 38.6636ZM41.8281 39.5659C40.627 39.5659 39.7188 38.8394 39.7188 37.6909V37.6792C39.7188 36.5542 40.5508 35.9038 42.0215 35.8159L43.832 35.7046V35.1304C43.832 34.3511 43.3574 33.9292 42.4141 33.9292C41.6582 33.9292 41.1602 34.2104 40.9961 34.7026L40.9902 34.7202H39.9707L39.9766 34.6851C40.1406 33.6948 41.1016 33.0269 42.4492 33.0269C43.9902 33.0269 44.8516 33.8179 44.8516 35.1304V39.4546H43.832V38.5229H43.7383C43.3398 39.1968 42.6777 39.5659 41.8281 39.5659ZM40.7617 37.6675C40.7617 38.3062 41.3066 38.6812 42.0391 38.6812C43.0762 38.6812 43.832 38.0015 43.832 37.0991V36.5249L42.1445 36.6304C41.1836 36.689 40.7617 37.0288 40.7617 37.6558V37.6675ZM46.7148 39.4546V33.1382H47.7344V34.0757H47.8281C48.0684 33.4136 48.6602 33.0269 49.5156 33.0269C49.709 33.0269 49.9258 33.0503 50.0254 33.0679V34.0581C49.8145 34.0229 49.6211 33.9995 49.3984 33.9995C48.4258 33.9995 47.7344 34.6147 47.7344 35.5405V39.4546H46.7148Z" fill="#FCBE45"/>
</svg>
